<svg width="24" height="24" viewBox="0 0 24 24" fill="none" xmlns="http://www.w3.org/2000/svg">
<path d="M6 10C5.44772 10 5 10.4477 5 11V19C5 19.5523 5.44772 20 6 20H18C18.5523 20 19 19.5523 19 19V11C19 10.4477 18.5523 10 18 10H6Z" fill="#FFC28D"/>
<path d="M19 10.0802V20.0802H5V10.0802M19 10.0802H5M19 10.0802H20V7.0802H4V10.0802H5M12 7.0802C12.8333 5.24687 14.9999 1.5802 16.9999 3.5802C18.9999 5.5802 14.5 6.91353 12 7.0802ZM12 7.0802C11.1667 5.24687 8.99999 1.5802 6.99999 3.5802C4.99999 5.5802 9.5 6.91353 12 7.0802Z" stroke="black" stroke-width="2" stroke-linecap="round" stroke-linejoin="round"/>
</svg>
