<svg width="48" height="48" viewBox="0 0 48 48" fill="none" xmlns="http://www.w3.org/2000/svg">
<rect x="0.5" y="0.5" width="47" height="47" rx="7.5" fill="#FFF9EC" stroke="#B0B0B0"/>
<path d="M13.6796 15.6888L16.6613 12.7071C17.0518 12.3166 17.685 12.3166 18.0755 12.7071L22.5561 17.1876C22.9466 17.5782 22.9466 18.2113 22.5561 18.6018L19.5797 21.5782C19.1392 22.0187 19.03 22.6916 19.3086 23.2487C20.919 26.4695 23.5305 29.081 26.7513 30.6914C27.3084 30.97 27.9813 30.8608 28.4218 30.4203L31.3982 27.4439C31.7887 27.0534 32.4218 27.0534 32.8124 27.4439L37.2929 31.9245C37.6834 32.315 37.6834 32.9482 37.2929 33.3387L34.3112 36.3204C32.1999 38.4317 28.8573 38.6693 26.4686 36.8777L21.4707 33.1293C19.7271 31.8217 18.1783 30.2729 16.8707 28.5293L13.1223 23.5314C11.3307 21.1427 11.5683 17.8002 13.6796 15.6888Z" fill="#4D6D67"/>
</svg>
