<svg width="48" height="48" viewBox="0 0 48 48" fill="none" xmlns="http://www.w3.org/2000/svg">
<rect x="0.5" y="0.5" width="47" height="47" rx="7.5" fill="#FFF9EC" stroke="#B0B0B0"/>
<path d="M32.1667 33.3333H15.8333L13.5 19.3333L19.9167 24.5833L24 18.1666L28.0833 24.5833L34.5 19.3333L32.1667 33.3333Z" fill="#4D6D67"/>
<path d="M34.5 19.3333L32.1667 33.3333H15.8333L13.5 19.3333M34.5 19.3333L28.0833 24.5833L24 18.1666M34.5 19.3333C35.4665 19.3333 36.25 18.5498 36.25 17.5833C36.25 16.6168 35.4665 15.8333 34.5 15.8333C33.5335 15.8333 32.75 16.6168 32.75 17.5833C32.75 18.5498 33.5335 19.3333 34.5 19.3333ZM24 18.1666L19.9167 24.5833L13.5 19.3333M24 18.1666C24.9665 18.1666 25.75 17.3831 25.75 16.4166C25.75 15.4501 24.9665 14.6666 24 14.6666C23.0335 14.6666 22.25 15.4501 22.25 16.4166C22.25 17.3831 23.0335 18.1666 24 18.1666ZM13.5 19.3333C14.4665 19.3333 15.25 18.5498 15.25 17.5833C15.25 16.6168 14.4665 15.8333 13.5 15.8333C12.5335 15.8333 11.75 16.6168 11.75 17.5833C11.75 18.5498 12.5335 19.3333 13.5 19.3333Z" stroke="#4D6D67" stroke-width="2" stroke-linecap="round" stroke-linejoin="round"/>
</svg>
