<svg width="48" height="48" viewBox="0 0 48 48" fill="none" xmlns="http://www.w3.org/2000/svg">
<rect x="0.5" y="0.5" width="47" height="47" rx="7.5" fill="#FFF9EC" stroke="#B0B0B0"/>
<path d="M33 30V17C33 17 32 15 28.5 15C25 15 24 18 24 18C24 18 23 15 19.5 15C16 15 15 17 15 17V30C15 30 16 28 19.5 28C23 28 24 30 24 30C24 30 25 28 28.5 28C32 28 33 30 33 30Z" fill="#4D6D67"/>
<path d="M33 17H34C34 16.8448 33.9639 16.6916 33.8944 16.5528L33 17ZM33 30L32.1056 30.4472C32.313 30.862 32.7784 31.0798 33.2298 30.9732C33.6811 30.8667 34 30.4638 34 30H33ZM15 17L14.1056 16.5528C14.0361 16.6916 14 16.8448 14 17H15ZM15 30H14C14 30.4638 14.3189 30.8667 14.7702 30.9732C15.2216 31.0798 15.687 30.862 15.8944 30.4472L15 30ZM24 30L23.1056 30.4472C23.275 30.786 23.6212 31 24 31C24.3788 31 24.725 30.786 24.8944 30.4472L24 30ZM24 18L23.0513 18.3162C23.1874 18.7246 23.5696 19 24 19C24.4304 19 24.8126 18.7246 24.9487 18.3162L24 18ZM32 17V30H34V17H32ZM14 17V30H16V17H14ZM33 30C33.8944 29.5528 33.8941 29.5522 33.8938 29.5515C33.8937 29.5513 33.8934 29.5507 33.8932 29.5502C33.8927 29.5494 33.8922 29.5485 33.8918 29.5475C33.8908 29.5456 33.8898 29.5436 33.8887 29.5415C33.8865 29.5372 33.884 29.5324 33.8812 29.5272C33.8757 29.5167 33.869 29.5043 33.861 29.49C33.8452 29.4616 33.8244 29.4259 33.7982 29.3841C33.7459 29.3004 33.672 29.1917 33.5731 29.0668C33.3752 28.8168 33.0765 28.5009 32.6507 28.1913C31.787 27.5631 30.4547 27 28.5 27V29C30.0453 29 30.963 29.4369 31.4743 29.8087C31.736 29.9991 31.9061 30.1832 32.005 30.3082C32.0545 30.3708 32.0861 30.4183 32.1022 30.4441C32.1102 30.4569 32.1143 30.4642 32.1148 30.465C32.115 30.4655 32.1144 30.4643 32.1128 30.4613C32.112 30.4599 32.111 30.458 32.1098 30.4556C32.1092 30.4544 32.1086 30.4532 32.1079 30.4518C32.1075 30.4511 32.1071 30.4503 32.1068 30.4496C32.1066 30.4492 32.1063 30.4486 32.1062 30.4484C32.1059 30.4478 32.1056 30.4472 33 30ZM28.5 27C26.5453 27 25.213 27.5631 24.3493 28.1913C23.9235 28.5009 23.6248 28.8168 23.4269 29.0668C23.328 29.1917 23.2541 29.3004 23.2018 29.3841C23.1756 29.4259 23.1548 29.4616 23.139 29.49C23.131 29.5043 23.1243 29.5167 23.1188 29.5272C23.116 29.5324 23.1135 29.5372 23.1113 29.5415C23.1102 29.5436 23.1092 29.5456 23.1082 29.5475C23.1078 29.5485 23.1073 29.5494 23.1068 29.5502C23.1066 29.5507 23.1063 29.5513 23.1062 29.5515C23.1059 29.5522 23.1056 29.5528 24 30C24.8944 30.4472 24.8941 30.4478 24.8938 30.4484C24.8937 30.4486 24.8934 30.4492 24.8932 30.4496C24.8929 30.4503 24.8925 30.4511 24.8921 30.4518C24.8914 30.4532 24.8908 30.4544 24.8902 30.4556C24.889 30.458 24.888 30.4599 24.8872 30.4613C24.8856 30.4643 24.885 30.4655 24.8852 30.465C24.8857 30.4642 24.8898 30.4569 24.8978 30.4441C24.9139 30.4183 24.9455 30.3708 24.995 30.3082C25.0939 30.1832 25.264 29.9991 25.5257 29.8087C26.037 29.4369 26.9547 29 28.5 29V27ZM24 30C24.8944 29.5528 24.8941 29.5522 24.8938 29.5515C24.8937 29.5513 24.8934 29.5507 24.8932 29.5502C24.8927 29.5494 24.8922 29.5485 24.8918 29.5475C24.8908 29.5456 24.8898 29.5436 24.8887 29.5415C24.8865 29.5372 24.884 29.5324 24.8812 29.5272C24.8757 29.5167 24.869 29.5043 24.861 29.49C24.8452 29.4616 24.8244 29.4259 24.7982 29.3841C24.7459 29.3004 24.672 29.1917 24.5731 29.0668C24.3752 28.8168 24.0765 28.5009 23.6507 28.1913C22.787 27.5631 21.4547 27 19.5 27V29C21.0453 29 21.963 29.4369 22.4743 29.8087C22.736 29.9991 22.9061 30.1832 23.005 30.3082C23.0545 30.3708 23.0861 30.4183 23.1022 30.4441C23.1102 30.4569 23.1143 30.4642 23.1148 30.465C23.115 30.4655 23.1144 30.4643 23.1128 30.4613C23.112 30.4599 23.111 30.458 23.1098 30.4556C23.1092 30.4544 23.1086 30.4532 23.1079 30.4518C23.1075 30.4511 23.1071 30.4503 23.1068 30.4496C23.1066 30.4492 23.1063 30.4486 23.1062 30.4484C23.1059 30.4478 23.1056 30.4472 24 30ZM19.5 27C17.5453 27 16.213 27.5631 15.3493 28.1913C14.9235 28.5009 14.6248 28.8168 14.4269 29.0668C14.328 29.1917 14.2541 29.3004 14.2018 29.3841C14.1756 29.4259 14.1548 29.4616 14.139 29.49C14.131 29.5043 14.1243 29.5167 14.1188 29.5272C14.116 29.5324 14.1135 29.5372 14.1113 29.5415C14.1102 29.5436 14.1092 29.5456 14.1082 29.5475C14.1078 29.5485 14.1073 29.5494 14.1068 29.5502C14.1066 29.5507 14.1063 29.5513 14.1062 29.5515C14.1059 29.5522 14.1056 29.5528 15 30C15.8944 30.4472 15.8941 30.4478 15.8938 30.4484C15.8937 30.4486 15.8934 30.4492 15.8932 30.4496C15.8929 30.4503 15.8925 30.4511 15.8921 30.4518C15.8914 30.4532 15.8908 30.4544 15.8902 30.4556C15.889 30.458 15.888 30.4599 15.8872 30.4613C15.8856 30.4643 15.885 30.4655 15.8852 30.465C15.8857 30.4642 15.8898 30.4569 15.8978 30.4441C15.9139 30.4183 15.9455 30.3708 15.995 30.3082C16.0939 30.1832 16.264 29.9991 16.5257 29.8087C17.037 29.4369 17.9547 29 19.5 29V27ZM33 17C33.8944 16.5528 33.8941 16.5522 33.8938 16.5515C33.8937 16.5513 33.8934 16.5507 33.8932 16.5502C33.8927 16.5494 33.8922 16.5485 33.8918 16.5475C33.8908 16.5456 33.8898 16.5436 33.8887 16.5415C33.8865 16.5372 33.884 16.5324 33.8812 16.5272C33.8757 16.5167 33.869 16.5043 33.861 16.49C33.8452 16.4616 33.8244 16.4259 33.7982 16.3841C33.7459 16.3004 33.672 16.1917 33.5731 16.0668C33.3752 15.8168 33.0765 15.5009 32.6507 15.1913C31.787 14.5631 30.4547 14 28.5 14V16C30.0453 16 30.963 16.4369 31.4743 16.8087C31.736 16.9991 31.9061 17.1832 32.005 17.3082C32.0545 17.3708 32.0861 17.4183 32.1022 17.4441C32.1102 17.4569 32.1143 17.4642 32.1148 17.465C32.115 17.4655 32.1144 17.4643 32.1128 17.4613C32.112 17.4599 32.111 17.458 32.1098 17.4556C32.1092 17.4544 32.1086 17.4532 32.1079 17.4518C32.1075 17.4511 32.1071 17.4503 32.1068 17.4496C32.1066 17.4492 32.1063 17.4486 32.1062 17.4484C32.1059 17.4478 32.1056 17.4472 33 17ZM28.5 14C26.4233 14 25.0435 14.9045 24.2003 15.8243C23.7865 16.2758 23.5054 16.7256 23.3266 17.0645C23.2367 17.2348 23.1712 17.3797 23.1267 17.4865C23.1044 17.54 23.0873 17.5841 23.0749 17.6175C23.0687 17.6341 23.0637 17.6481 23.0598 17.6592C23.0578 17.6648 23.0561 17.6696 23.0547 17.6737C23.054 17.6758 23.0534 17.6776 23.0528 17.6793C23.0525 17.6801 23.0523 17.6809 23.052 17.6817C23.0519 17.6821 23.0517 17.6826 23.0517 17.6828C23.0515 17.6833 23.0513 17.6838 24 18C24.9487 18.3162 24.9485 18.3167 24.9484 18.3172C24.9483 18.3173 24.9482 18.3178 24.9481 18.318C24.9479 18.3186 24.9477 18.3191 24.9476 18.3196C24.9472 18.3205 24.947 18.3213 24.9468 18.3219C24.9463 18.3231 24.9462 18.3237 24.9462 18.3236C24.9463 18.3233 24.9473 18.3204 24.9493 18.3151C24.9532 18.3045 24.961 18.2843 24.9729 18.2557C24.9967 18.1984 25.0368 18.109 25.0953 17.998C25.2133 17.7744 25.401 17.4742 25.6747 17.1757C26.2065 16.5955 27.0767 16 28.5 16V14ZM24 18C24.9487 17.6838 24.9485 17.6833 24.9483 17.6828C24.9483 17.6826 24.9481 17.6821 24.948 17.6817C24.9477 17.6809 24.9475 17.6801 24.9472 17.6793C24.9466 17.6776 24.946 17.6758 24.9453 17.6737C24.9439 17.6696 24.9422 17.6648 24.9402 17.6592C24.9363 17.6481 24.9313 17.6341 24.9251 17.6175C24.9127 17.5841 24.8956 17.54 24.8733 17.4865C24.8288 17.3797 24.7633 17.2348 24.6734 17.0645C24.4946 16.7256 24.2135 16.2758 23.7997 15.8243C22.9565 14.9045 21.5767 14 19.5 14V16C20.9233 16 21.7935 16.5955 22.3253 17.1757C22.599 17.4742 22.7867 17.7744 22.9047 17.998C22.9632 18.109 23.0033 18.1984 23.0271 18.2557C23.039 18.2843 23.0468 18.3045 23.0507 18.3151C23.0527 18.3204 23.0537 18.3233 23.0538 18.3236C23.0538 18.3237 23.0537 18.3231 23.0532 18.3219C23.053 18.3213 23.0528 18.3205 23.0524 18.3196C23.0523 18.3191 23.0521 18.3186 23.0519 18.318C23.0518 18.3178 23.0517 18.3173 23.0516 18.3172C23.0515 18.3167 23.0513 18.3162 24 18ZM19.5 14C17.5453 14 16.213 14.5631 15.3493 15.1913C14.9235 15.5009 14.6248 15.8168 14.4269 16.0668C14.328 16.1917 14.2541 16.3004 14.2018 16.3841C14.1756 16.4259 14.1548 16.4616 14.139 16.49C14.131 16.5043 14.1243 16.5167 14.1188 16.5272C14.116 16.5324 14.1135 16.5372 14.1113 16.5415C14.1102 16.5436 14.1092 16.5456 14.1082 16.5475C14.1078 16.5485 14.1073 16.5494 14.1068 16.5502C14.1066 16.5507 14.1063 16.5513 14.1062 16.5515C14.1059 16.5522 14.1056 16.5528 15 17C15.8944 17.4472 15.8941 17.4478 15.8938 17.4484C15.8937 17.4486 15.8934 17.4492 15.8932 17.4496C15.8929 17.4503 15.8925 17.4511 15.8921 17.4518C15.8914 17.4532 15.8908 17.4544 15.8902 17.4556C15.889 17.458 15.888 17.4599 15.8872 17.4613C15.8856 17.4643 15.885 17.4655 15.8852 17.465C15.8857 17.4642 15.8898 17.4569 15.8978 17.4441C15.9139 17.4183 15.9455 17.3708 15.995 17.3082C16.0939 17.1832 16.264 16.9991 16.5257 16.8087C17.037 16.4369 17.9547 16 19.5 16V14Z" fill="#4D6D67"/>
</svg>
