<svg width="48" height="48" viewBox="0 0 48 48" fill="none" xmlns="http://www.w3.org/2000/svg">
<rect x="0.5" y="0.5" width="47" height="47" rx="7.5" fill="#FFF9EC" stroke="#B0B0B0"/>
<path fill-rule="evenodd" clip-rule="evenodd" d="M25.5445 21.1017C25.0341 21.1017 24.6305 21.4984 24.6305 22C24.6305 22.49 25.0341 22.8984 25.5445 22.8984H32.6666V28.475C32.6666 31.3334 30.3044 33.6667 27.3844 33.6667H21.6036C18.6954 33.6667 16.3333 31.345 16.3333 28.4867V15.525C16.3333 12.655 18.7073 10.3334 21.6155 10.3334H27.4081C30.3044 10.3334 32.6666 12.655 32.6666 15.5134V21.1017H25.5445ZM36.9018 17.9636L40.3084 21.3586C40.4834 21.5336 40.5768 21.7553 40.5768 22.0003C40.5768 22.2336 40.4834 22.4669 40.3084 22.6303L36.9018 26.0253C36.7268 26.2003 36.4934 26.2936 36.2718 26.2936C36.0384 26.2936 35.8051 26.2003 35.6301 26.0253C35.2801 25.6753 35.2801 25.1036 35.6301 24.7536L37.4968 22.8986H32.6668V21.1019H37.4968L35.6301 19.2469C35.2801 18.8969 35.2801 18.3253 35.6301 17.9753C35.9801 17.6136 36.5518 17.6136 36.9018 17.9636Z" fill="#4D6D67"/>
</svg>
