<svg width="12" height="12" viewBox="0 0 12 12" fill="none" xmlns="http://www.w3.org/2000/svg">
<path fill-rule="evenodd" clip-rule="evenodd" d="M6.00014 1.25C4.48138 1.25 3.25018 2.48122 3.25018 4C3.25018 4.94473 3.72656 5.7782 4.45222 6.27328C2.76994 6.88953 1.55815 8.48147 1.50212 10.3638C1.49596 10.5709 1.65879 10.7437 1.8658 10.7498C2.07282 10.756 2.24563 10.5932 2.25179 10.3862C2.31186 8.36787 3.96711 6.75 6.0001 6.75C8.03309 6.75 9.68834 8.36787 9.74841 10.3862C9.75457 10.5932 9.92738 10.756 10.1344 10.7498C10.3414 10.7437 10.5042 10.5709 10.4981 10.3638C10.4421 8.48149 9.23029 6.88956 7.54804 6.2733C8.27371 5.77822 8.75011 4.94475 8.75011 4C8.75011 2.48122 7.51891 1.25 6.00014 1.25ZM4.00018 4C4.00018 2.89542 4.8956 2 6.00014 2C7.10469 2 8.00011 2.89542 8.00011 4C8.00011 5.10458 7.10469 6 6.00014 6C4.8956 6 4.00018 5.10458 4.00018 4Z" fill="#8F9090"/>
</svg>
