<svg width="335" height="253" viewBox="0 0 335 253" fill="none" xmlns="http://www.w3.org/2000/svg">
<rect x="0.5" y="1.5" width="143" height="222" rx="24.5" fill="#FFFBEF" fill-opacity="0.909804" stroke="#B0B0B0"/>
<g filter="url(#filter0_d_145_598)">
<rect x="166" y="50" width="150" height="32.838" rx="7" fill="white"/>
</g>
<path d="M190.189 72.1212C190.389 72.1212 190.546 72.1787 190.661 72.2937C190.781 72.4037 190.841 72.5512 190.841 72.7362V73.8462H183.401V73.2312C183.401 73.1062 183.426 72.9762 183.476 72.8412C183.531 72.7012 183.616 72.5762 183.731 72.4662L187.024 69.1662C187.299 68.8862 187.544 68.6187 187.759 68.3637C187.979 68.1087 188.161 67.8562 188.306 67.6062C188.451 67.3562 188.561 67.1037 188.636 66.8487C188.716 66.5887 188.756 66.3162 188.756 66.0312C188.756 65.7712 188.719 65.5437 188.644 65.3487C188.569 65.1487 188.461 64.9812 188.321 64.8462C188.186 64.7112 188.021 64.6112 187.826 64.5462C187.636 64.4762 187.421 64.4412 187.181 64.4412C186.961 64.4412 186.756 64.4737 186.566 64.5387C186.381 64.5987 186.216 64.6862 186.071 64.8012C185.926 64.9112 185.804 65.0412 185.704 65.1912C185.604 65.3412 185.529 65.5062 185.479 65.6862C185.394 65.9162 185.284 66.0687 185.149 66.1437C185.014 66.2187 184.819 66.2362 184.564 66.1962L183.589 66.0237C183.664 65.5037 183.809 65.0487 184.024 64.6587C184.239 64.2637 184.506 63.9362 184.826 63.6762C185.151 63.4112 185.521 63.2137 185.936 63.0837C186.356 62.9487 186.806 62.8812 187.286 62.8812C187.786 62.8812 188.244 62.9562 188.659 63.1062C189.074 63.2512 189.429 63.4587 189.724 63.7287C190.019 63.9987 190.249 64.3237 190.414 64.7037C190.579 65.0837 190.661 65.5062 190.661 65.9712C190.661 66.3712 190.601 66.7412 190.481 67.0812C190.366 67.4212 190.209 67.7462 190.009 68.0562C189.814 68.3662 189.584 68.6662 189.319 68.9562C189.054 69.2462 188.776 69.5412 188.486 69.8412L186.041 72.3387C186.276 72.2687 186.509 72.2162 186.739 72.1812C186.974 72.1412 187.196 72.1212 187.406 72.1212H190.189ZM199.857 68.4237C199.857 69.3687 199.755 70.1912 199.55 70.8912C199.35 71.5862 199.07 72.1612 198.71 72.6162C198.355 73.0712 197.932 73.4112 197.442 73.6362C196.957 73.8562 196.432 73.9662 195.867 73.9662C195.302 73.9662 194.777 73.8562 194.292 73.6362C193.812 73.4112 193.395 73.0712 193.04 72.6162C192.685 72.1612 192.407 71.5862 192.207 70.8912C192.007 70.1912 191.907 69.3687 191.907 68.4237C191.907 67.4737 192.007 66.6512 192.207 65.9562C192.407 65.2612 192.685 64.6862 193.04 64.2312C193.395 63.7762 193.812 63.4387 194.292 63.2187C194.777 62.9937 195.302 62.8812 195.867 62.8812C196.432 62.8812 196.957 62.9937 197.442 63.2187C197.932 63.4387 198.355 63.7762 198.71 64.2312C199.07 64.6862 199.35 65.2612 199.55 65.9562C199.755 66.6512 199.857 67.4737 199.857 68.4237ZM197.945 68.4237C197.945 67.6387 197.887 66.9887 197.772 66.4737C197.657 65.9587 197.502 65.5487 197.307 65.2437C197.117 64.9387 196.897 64.7262 196.647 64.6062C196.397 64.4812 196.137 64.4187 195.867 64.4187C195.602 64.4187 195.345 64.4812 195.095 64.6062C194.85 64.7262 194.632 64.9387 194.442 65.2437C194.252 65.5487 194.1 65.9587 193.985 66.4737C193.875 66.9887 193.82 67.6387 193.82 68.4237C193.82 69.2087 193.875 69.8587 193.985 70.3737C194.1 70.8887 194.252 71.2987 194.442 71.6037C194.632 71.9087 194.85 72.1237 195.095 72.2487C195.345 72.3687 195.602 72.4287 195.867 72.4287C196.137 72.4287 196.397 72.3687 196.647 72.2487C196.897 72.1237 197.117 71.9087 197.307 71.6037C197.502 71.2987 197.657 70.8887 197.772 70.3737C197.887 69.8587 197.945 69.2087 197.945 68.4237ZM205.821 65.6262C205.821 66.0362 205.751 66.4062 205.611 66.7362C205.476 67.0662 205.293 67.3487 205.063 67.5837C204.833 67.8137 204.566 67.9912 204.261 68.1162C203.956 68.2412 203.638 68.3037 203.308 68.3037C202.948 68.3037 202.616 68.2412 202.311 68.1162C202.006 67.9912 201.741 67.8137 201.516 67.5837C201.296 67.3487 201.123 67.0662 200.998 66.7362C200.873 66.4062 200.811 66.0362 200.811 65.6262C200.811 65.2062 200.873 64.8262 200.998 64.4862C201.123 64.1462 201.296 63.8587 201.516 63.6237C201.741 63.3887 202.006 63.2087 202.311 63.0837C202.616 62.9537 202.948 62.8887 203.308 62.8887C203.668 62.8887 204.001 62.9537 204.306 63.0837C204.616 63.2087 204.883 63.3887 205.108 63.6237C205.333 63.8587 205.508 64.1462 205.633 64.4862C205.758 64.8262 205.821 65.2062 205.821 65.6262ZM204.396 65.6262C204.396 65.3362 204.366 65.0937 204.306 64.8987C204.251 64.7037 204.173 64.5462 204.073 64.4262C203.978 64.3062 203.863 64.2212 203.728 64.1712C203.598 64.1162 203.458 64.0887 203.308 64.0887C203.158 64.0887 203.018 64.1162 202.888 64.1712C202.758 64.2212 202.646 64.3062 202.551 64.4262C202.461 64.5462 202.388 64.7037 202.333 64.8987C202.278 65.0937 202.251 65.3362 202.251 65.6262C202.251 65.9062 202.278 66.1412 202.333 66.3312C202.388 66.5162 202.461 66.6662 202.551 66.7812C202.646 66.8962 202.758 66.9787 202.888 67.0287C203.018 67.0787 203.158 67.1037 203.308 67.1037C203.458 67.1037 203.598 67.0787 203.728 67.0287C203.863 66.9787 203.978 66.8962 204.073 66.7812C204.173 66.6662 204.251 66.5162 204.306 66.3312C204.366 66.1412 204.396 65.9062 204.396 65.6262ZM209.428 63.2937C209.493 63.2187 209.568 63.1512 209.653 63.0912C209.743 63.0312 209.868 63.0012 210.028 63.0012H211.378L203.323 73.5687C203.258 73.6487 203.181 73.7162 203.091 73.7712C203.001 73.8212 202.891 73.8462 202.761 73.8462H201.381L209.428 63.2937ZM211.948 71.2962C211.948 71.7062 211.878 72.0762 211.738 72.4062C211.603 72.7362 211.421 73.0187 211.191 73.2537C210.961 73.4837 210.693 73.6637 210.388 73.7937C210.083 73.9187 209.766 73.9812 209.436 73.9812C209.076 73.9812 208.743 73.9187 208.438 73.7937C208.133 73.6637 207.868 73.4837 207.643 73.2537C207.423 73.0187 207.251 72.7362 207.126 72.4062C207.001 72.0762 206.938 71.7062 206.938 71.2962C206.938 70.8762 207.001 70.4962 207.126 70.1562C207.251 69.8162 207.423 69.5287 207.643 69.2937C207.868 69.0587 208.133 68.8787 208.438 68.7537C208.743 68.6237 209.076 68.5587 209.436 68.5587C209.796 68.5587 210.128 68.6237 210.433 68.7537C210.743 68.8787 211.008 69.0587 211.228 69.2937C211.453 69.5287 211.628 69.8162 211.753 70.1562C211.883 70.4962 211.948 70.8762 211.948 71.2962ZM210.516 71.2962C210.516 71.0062 210.488 70.7637 210.433 70.5687C210.378 70.3737 210.301 70.2162 210.201 70.0962C210.106 69.9762 209.991 69.8912 209.856 69.8412C209.726 69.7862 209.586 69.7587 209.436 69.7587C209.286 69.7587 209.146 69.7862 209.016 69.8412C208.886 69.8912 208.773 69.9762 208.678 70.0962C208.583 70.2162 208.508 70.3737 208.453 70.5687C208.403 70.7637 208.378 71.0062 208.378 71.2962C208.378 71.5762 208.403 71.8112 208.453 72.0012C208.508 72.1912 208.583 72.3437 208.678 72.4587C208.773 72.5737 208.886 72.6562 209.016 72.7062C209.146 72.7562 209.286 72.7812 209.436 72.7812C209.586 72.7812 209.726 72.7562 209.856 72.7062C209.991 72.6562 210.106 72.5737 210.201 72.4587C210.301 72.3437 210.378 72.1912 210.433 72.0012C210.488 71.8112 210.516 71.5762 210.516 71.2962Z" fill="#161A41" fill-opacity="0.78"/>
<path d="M250.126 71.2338H260.194V72.5178H250.126V71.2338ZM254.326 72.0618H255.91V76.1418H254.326V72.0618ZM255.13 65.3898C257.506 65.3898 259.15 66.3738 259.15 67.8978C259.15 69.4098 257.506 70.3818 255.13 70.3818C252.766 70.3818 251.122 69.4098 251.122 67.8978C251.122 66.3738 252.766 65.3898 255.13 65.3898ZM255.13 66.6618C253.678 66.6618 252.754 67.0938 252.754 67.8978C252.754 68.6898 253.678 69.1218 255.13 69.1218C256.594 69.1218 257.506 68.6898 257.506 67.8978C257.506 67.0938 256.594 66.6618 255.13 66.6618ZM265.377 70.3098H266.973V71.8578H265.377V70.3098ZM266.193 65.1258C268.725 65.1258 270.213 65.7858 270.213 67.0098C270.213 68.2338 268.725 68.9058 266.193 68.9058C263.649 68.9058 262.173 68.2338 262.173 67.0098C262.173 65.7858 263.649 65.1258 266.193 65.1258ZM266.193 66.2898C264.585 66.2898 263.829 66.5178 263.829 67.0098C263.829 67.5258 264.585 67.7418 266.193 67.7418C267.801 67.7418 268.557 67.5258 268.557 67.0098C268.557 66.5178 267.801 66.2898 266.193 66.2898ZM261.165 69.3858H271.209V70.6458H261.165V69.3858ZM262.317 71.3658H269.997V74.2218H263.901V75.2058H262.329V73.1178H268.425V72.5538H262.317V71.3658ZM262.329 74.8578H270.285V76.0578H262.329V74.8578ZM272.204 70.1418H282.248V71.4018H272.204V70.1418ZM277.208 72.0138C279.608 72.0138 281.06 72.7698 281.06 74.0778C281.06 75.3858 279.608 76.1298 277.208 76.1298C274.808 76.1298 273.344 75.3858 273.344 74.0778C273.344 72.7698 274.808 72.0138 277.208 72.0138ZM277.208 73.2498C275.72 73.2498 274.964 73.5018 274.964 74.0778C274.964 74.6418 275.72 74.9058 277.208 74.9058C278.696 74.9058 279.452 74.6418 279.452 74.0778C279.452 73.5018 278.696 73.2498 277.208 73.2498ZM276.128 66.1578H277.544V66.4338C277.544 68.0898 276.044 69.4698 273.176 69.7218L272.624 68.4858C275.06 68.2698 276.128 67.2978 276.128 66.4338V66.1578ZM276.908 66.1578H278.324V66.4338C278.324 67.2978 279.38 68.2698 281.828 68.4858L281.276 69.7218C278.42 69.4698 276.908 68.1018 276.908 66.4338V66.1578ZM273.116 65.5338H281.348V66.7938H273.116V65.5338Z" fill="#161A41" fill-opacity="0.41"/>
<g filter="url(#filter1_d_145_598)">
<rect x="167" y="4" width="150" height="32.838" rx="7" fill="#FDD563"/>
</g>
<path d="M187.746 20.9387L187.371 21.4037C187.581 21.2987 187.806 21.2187 188.046 21.1637C188.291 21.1037 188.554 21.0737 188.834 21.0737C189.244 21.0737 189.641 21.1412 190.026 21.2762C190.416 21.4112 190.759 21.6162 191.054 21.8912C191.349 22.1612 191.586 22.4987 191.766 22.9037C191.946 23.3087 192.036 23.7812 192.036 24.3212C192.036 24.8262 191.944 25.3012 191.759 25.7462C191.574 26.1862 191.314 26.5712 190.979 26.9012C190.644 27.2312 190.239 27.4912 189.764 27.6812C189.294 27.8712 188.774 27.9662 188.204 27.9662C187.624 27.9662 187.104 27.8737 186.644 27.6887C186.184 27.5037 185.791 27.2462 185.466 26.9162C185.141 26.5812 184.891 26.1812 184.716 25.7162C184.546 25.2462 184.461 24.7262 184.461 24.1562C184.461 23.6462 184.564 23.1237 184.769 22.5887C184.979 22.0487 185.301 21.4887 185.736 20.9087L188.324 17.4362C188.414 17.3162 188.544 17.2137 188.714 17.1287C188.889 17.0437 189.089 17.0012 189.314 17.0012H190.964L187.746 20.9387ZM188.166 26.4512C188.461 26.4512 188.731 26.4012 188.976 26.3012C189.226 26.2012 189.439 26.0612 189.614 25.8812C189.794 25.7012 189.934 25.4912 190.034 25.2512C190.134 25.0062 190.184 24.7412 190.184 24.4562C190.184 24.1462 190.136 23.8687 190.041 23.6237C189.946 23.3737 189.811 23.1637 189.636 22.9937C189.461 22.8187 189.251 22.6862 189.006 22.5962C188.761 22.5062 188.491 22.4612 188.196 22.4612C187.901 22.4612 187.634 22.5112 187.394 22.6112C187.154 22.7112 186.949 22.8512 186.779 23.0312C186.609 23.2062 186.476 23.4162 186.381 23.6612C186.286 23.9012 186.239 24.1612 186.239 24.4412C186.239 24.7412 186.279 25.0162 186.359 25.2662C186.444 25.5112 186.566 25.7212 186.726 25.8962C186.891 26.0712 187.094 26.2087 187.334 26.3087C187.574 26.4037 187.851 26.4512 188.166 26.4512ZM200.857 22.4237C200.857 23.3687 200.755 24.1912 200.55 24.8912C200.35 25.5862 200.07 26.1612 199.71 26.6162C199.355 27.0712 198.932 27.4112 198.442 27.6362C197.957 27.8562 197.432 27.9662 196.867 27.9662C196.302 27.9662 195.777 27.8562 195.292 27.6362C194.812 27.4112 194.395 27.0712 194.04 26.6162C193.685 26.1612 193.407 25.5862 193.207 24.8912C193.007 24.1912 192.907 23.3687 192.907 22.4237C192.907 21.4737 193.007 20.6512 193.207 19.9562C193.407 19.2612 193.685 18.6862 194.04 18.2312C194.395 17.7762 194.812 17.4387 195.292 17.2187C195.777 16.9937 196.302 16.8812 196.867 16.8812C197.432 16.8812 197.957 16.9937 198.442 17.2187C198.932 17.4387 199.355 17.7762 199.71 18.2312C200.07 18.6862 200.35 19.2612 200.55 19.9562C200.755 20.6512 200.857 21.4737 200.857 22.4237ZM198.945 22.4237C198.945 21.6387 198.887 20.9887 198.772 20.4737C198.657 19.9587 198.502 19.5487 198.307 19.2437C198.117 18.9387 197.897 18.7262 197.647 18.6062C197.397 18.4812 197.137 18.4187 196.867 18.4187C196.602 18.4187 196.345 18.4812 196.095 18.6062C195.85 18.7262 195.632 18.9387 195.442 19.2437C195.252 19.5487 195.1 19.9587 194.985 20.4737C194.875 20.9887 194.82 21.6387 194.82 22.4237C194.82 23.2087 194.875 23.8587 194.985 24.3737C195.1 24.8887 195.252 25.2987 195.442 25.6037C195.632 25.9087 195.85 26.1237 196.095 26.2487C196.345 26.3687 196.602 26.4287 196.867 26.4287C197.137 26.4287 197.397 26.3687 197.647 26.2487C197.897 26.1237 198.117 25.9087 198.307 25.6037C198.502 25.2987 198.657 24.8887 198.772 24.3737C198.887 23.8587 198.945 23.2087 198.945 22.4237ZM206.821 19.6262C206.821 20.0362 206.751 20.4062 206.611 20.7362C206.476 21.0662 206.293 21.3487 206.063 21.5837C205.833 21.8137 205.566 21.9912 205.261 22.1162C204.956 22.2412 204.638 22.3037 204.308 22.3037C203.948 22.3037 203.616 22.2412 203.311 22.1162C203.006 21.9912 202.741 21.8137 202.516 21.5837C202.296 21.3487 202.123 21.0662 201.998 20.7362C201.873 20.4062 201.811 20.0362 201.811 19.6262C201.811 19.2062 201.873 18.8262 201.998 18.4862C202.123 18.1462 202.296 17.8587 202.516 17.6237C202.741 17.3887 203.006 17.2087 203.311 17.0837C203.616 16.9537 203.948 16.8887 204.308 16.8887C204.668 16.8887 205.001 16.9537 205.306 17.0837C205.616 17.2087 205.883 17.3887 206.108 17.6237C206.333 17.8587 206.508 18.1462 206.633 18.4862C206.758 18.8262 206.821 19.2062 206.821 19.6262ZM205.396 19.6262C205.396 19.3362 205.366 19.0937 205.306 18.8987C205.251 18.7037 205.173 18.5462 205.073 18.4262C204.978 18.3062 204.863 18.2212 204.728 18.1712C204.598 18.1162 204.458 18.0887 204.308 18.0887C204.158 18.0887 204.018 18.1162 203.888 18.1712C203.758 18.2212 203.646 18.3062 203.551 18.4262C203.461 18.5462 203.388 18.7037 203.333 18.8987C203.278 19.0937 203.251 19.3362 203.251 19.6262C203.251 19.9062 203.278 20.1412 203.333 20.3312C203.388 20.5162 203.461 20.6662 203.551 20.7812C203.646 20.8962 203.758 20.9787 203.888 21.0287C204.018 21.0787 204.158 21.1037 204.308 21.1037C204.458 21.1037 204.598 21.0787 204.728 21.0287C204.863 20.9787 204.978 20.8962 205.073 20.7812C205.173 20.6662 205.251 20.5162 205.306 20.3312C205.366 20.1412 205.396 19.9062 205.396 19.6262ZM210.428 17.2937C210.493 17.2187 210.568 17.1512 210.653 17.0912C210.743 17.0312 210.868 17.0012 211.028 17.0012H212.378L204.323 27.5687C204.258 27.6487 204.181 27.7162 204.091 27.7712C204.001 27.8212 203.891 27.8462 203.761 27.8462H202.381L210.428 17.2937ZM212.948 25.2962C212.948 25.7062 212.878 26.0762 212.738 26.4062C212.603 26.7362 212.421 27.0187 212.191 27.2537C211.961 27.4837 211.693 27.6637 211.388 27.7937C211.083 27.9187 210.766 27.9812 210.436 27.9812C210.076 27.9812 209.743 27.9187 209.438 27.7937C209.133 27.6637 208.868 27.4837 208.643 27.2537C208.423 27.0187 208.251 26.7362 208.126 26.4062C208.001 26.0762 207.938 25.7062 207.938 25.2962C207.938 24.8762 208.001 24.4962 208.126 24.1562C208.251 23.8162 208.423 23.5287 208.643 23.2937C208.868 23.0587 209.133 22.8787 209.438 22.7537C209.743 22.6237 210.076 22.5587 210.436 22.5587C210.796 22.5587 211.128 22.6237 211.433 22.7537C211.743 22.8787 212.008 23.0587 212.228 23.2937C212.453 23.5287 212.628 23.8162 212.753 24.1562C212.883 24.4962 212.948 24.8762 212.948 25.2962ZM211.516 25.2962C211.516 25.0062 211.488 24.7637 211.433 24.5687C211.378 24.3737 211.301 24.2162 211.201 24.0962C211.106 23.9762 210.991 23.8912 210.856 23.8412C210.726 23.7862 210.586 23.7587 210.436 23.7587C210.286 23.7587 210.146 23.7862 210.016 23.8412C209.886 23.8912 209.773 23.9762 209.678 24.0962C209.583 24.2162 209.508 24.3737 209.453 24.5687C209.403 24.7637 209.378 25.0062 209.378 25.2962C209.378 25.5762 209.403 25.8112 209.453 26.0012C209.508 26.1912 209.583 26.3437 209.678 26.4587C209.773 26.5737 209.886 26.6562 210.016 26.7062C210.146 26.7562 210.286 26.7812 210.436 26.7812C210.586 26.7812 210.726 26.7562 210.856 26.7062C210.991 26.6562 211.106 26.5737 211.201 26.4587C211.301 26.3437 211.378 26.1912 211.433 26.0012C211.488 25.8112 211.516 25.5762 211.516 25.2962Z" fill="white"/>
<path d="M254.837 25.7858L253.781 22.8998C253.729 22.7718 253.675 22.6198 253.619 22.4438C253.563 22.2678 253.507 22.0778 253.451 21.8738C253.399 22.0778 253.345 22.2698 253.289 22.4498C253.233 22.6258 253.179 22.7798 253.127 22.9118L252.077 25.7858H254.837ZM257.687 29.0618H256.439C256.299 29.0618 256.185 29.0278 256.097 28.9598C256.009 28.8878 255.943 28.7998 255.899 28.6958L255.251 26.9258H251.657L251.009 28.6958C250.977 28.7878 250.915 28.8718 250.823 28.9478C250.731 29.0238 250.617 29.0618 250.481 29.0618H249.221L252.635 20.3858H254.279L257.687 29.0618ZM266.289 24.7238C266.289 25.3598 266.183 25.9438 265.971 26.4758C265.759 27.0078 265.461 27.4658 265.077 27.8498C264.693 28.2338 264.231 28.5318 263.691 28.7438C263.151 28.9558 262.551 29.0618 261.891 29.0618H258.585V20.3858H261.891C262.551 20.3858 263.151 20.4938 263.691 20.7098C264.231 20.9218 264.693 21.2198 265.077 21.6038C265.461 21.9838 265.759 22.4398 265.971 22.9718C266.183 23.5038 266.289 24.0878 266.289 24.7238ZM264.633 24.7238C264.633 24.2478 264.569 23.8218 264.441 23.4458C264.317 23.0658 264.135 22.7458 263.895 22.4858C263.659 22.2218 263.371 22.0198 263.031 21.8798C262.695 21.7398 262.315 21.6698 261.891 21.6698H260.205V27.7778H261.891C262.315 27.7778 262.695 27.7078 263.031 27.5678C263.371 27.4278 263.659 27.2278 263.895 26.9678C264.135 26.7038 264.317 26.3838 264.441 26.0078C264.569 25.6278 264.633 25.1998 264.633 24.7238ZM275.028 20.3858V29.0618H273.408V25.2698H269.334V29.0618H267.714V20.3858H269.334V24.1178H273.408V20.3858H275.028ZM284.664 24.7238C284.664 25.3598 284.558 25.9438 284.346 26.4758C284.134 27.0078 283.836 27.4658 283.452 27.8498C283.068 28.2338 282.606 28.5318 282.066 28.7438C281.526 28.9558 280.926 29.0618 280.266 29.0618H276.96V20.3858H280.266C280.926 20.3858 281.526 20.4938 282.066 20.7098C282.606 20.9218 283.068 21.2198 283.452 21.6038C283.836 21.9838 284.134 22.4398 284.346 22.9718C284.558 23.5038 284.664 24.0878 284.664 24.7238ZM283.008 24.7238C283.008 24.2478 282.944 23.8218 282.816 23.4458C282.692 23.0658 282.51 22.7458 282.27 22.4858C282.034 22.2218 281.746 22.0198 281.406 21.8798C281.07 21.7398 280.69 21.6698 280.266 21.6698H278.58V27.7778H280.266C280.69 27.7778 281.07 27.7078 281.406 27.5678C281.746 27.4278 282.034 27.2278 282.27 26.9678C282.51 26.7038 282.692 26.3838 282.816 26.0078C282.944 25.6278 283.008 25.1998 283.008 24.7238Z" fill="white"/>
<g filter="url(#filter2_d_145_598)">
<rect x="166" y="97" width="150" height="32.838" rx="7" fill="white"/>
</g>
<g filter="url(#filter3_d_145_598)">
<rect x="166" y="97" width="150" height="32.838" rx="7" fill="white"/>
</g>
<path d="M190.227 113.939C190.467 113.889 190.697 113.854 190.917 113.834C191.137 113.809 191.349 113.796 191.554 113.796C192.124 113.796 192.627 113.881 193.062 114.051C193.497 114.221 193.862 114.456 194.157 114.756C194.452 115.056 194.674 115.409 194.824 115.814C194.974 116.214 195.049 116.646 195.049 117.111C195.049 117.686 194.947 118.211 194.742 118.686C194.542 119.161 194.262 119.569 193.902 119.909C193.542 120.244 193.114 120.504 192.619 120.689C192.129 120.874 191.594 120.966 191.014 120.966C190.674 120.966 190.352 120.931 190.047 120.861C189.742 120.791 189.454 120.699 189.184 120.584C188.919 120.464 188.672 120.329 188.442 120.179C188.217 120.024 188.014 119.861 187.834 119.691L188.404 118.904C188.524 118.734 188.682 118.649 188.877 118.649C189.002 118.649 189.129 118.689 189.259 118.769C189.389 118.849 189.537 118.936 189.702 119.031C189.872 119.126 190.069 119.214 190.294 119.294C190.524 119.374 190.799 119.414 191.119 119.414C191.459 119.414 191.759 119.359 192.019 119.249C192.279 119.139 192.494 118.986 192.664 118.791C192.839 118.591 192.969 118.356 193.054 118.086C193.144 117.811 193.189 117.514 193.189 117.194C193.189 116.604 193.017 116.144 192.672 115.814C192.332 115.479 191.827 115.311 191.157 115.311C190.642 115.311 190.114 115.406 189.574 115.596L188.419 115.266L189.319 110.001H194.674V110.789C194.674 111.054 194.592 111.269 194.427 111.434C194.262 111.599 193.982 111.681 193.587 111.681H190.609L190.227 113.939ZM201.47 112.626C201.47 113.036 201.4 113.406 201.26 113.736C201.125 114.066 200.943 114.349 200.713 114.584C200.483 114.814 200.215 114.991 199.91 115.116C199.605 115.241 199.288 115.304 198.958 115.304C198.598 115.304 198.265 115.241 197.96 115.116C197.655 114.991 197.39 114.814 197.165 114.584C196.945 114.349 196.773 114.066 196.648 113.736C196.523 113.406 196.46 113.036 196.46 112.626C196.46 112.206 196.523 111.826 196.648 111.486C196.773 111.146 196.945 110.859 197.165 110.624C197.39 110.389 197.655 110.209 197.96 110.084C198.265 109.954 198.598 109.889 198.958 109.889C199.318 109.889 199.65 109.954 199.955 110.084C200.265 110.209 200.533 110.389 200.758 110.624C200.983 110.859 201.158 111.146 201.283 111.486C201.408 111.826 201.47 112.206 201.47 112.626ZM200.045 112.626C200.045 112.336 200.015 112.094 199.955 111.899C199.9 111.704 199.823 111.546 199.723 111.426C199.628 111.306 199.513 111.221 199.378 111.171C199.248 111.116 199.108 111.089 198.958 111.089C198.808 111.089 198.668 111.116 198.538 111.171C198.408 111.221 198.295 111.306 198.2 111.426C198.11 111.546 198.038 111.704 197.983 111.899C197.928 112.094 197.9 112.336 197.9 112.626C197.9 112.906 197.928 113.141 197.983 113.331C198.038 113.516 198.11 113.666 198.2 113.781C198.295 113.896 198.408 113.979 198.538 114.029C198.668 114.079 198.808 114.104 198.958 114.104C199.108 114.104 199.248 114.079 199.378 114.029C199.513 113.979 199.628 113.896 199.723 113.781C199.823 113.666 199.9 113.516 199.955 113.331C200.015 113.141 200.045 112.906 200.045 112.626ZM205.078 110.294C205.143 110.219 205.218 110.151 205.303 110.091C205.393 110.031 205.518 110.001 205.678 110.001H207.028L198.973 120.569C198.908 120.649 198.83 120.716 198.74 120.771C198.65 120.821 198.54 120.846 198.41 120.846H197.03L205.078 110.294ZM207.598 118.296C207.598 118.706 207.528 119.076 207.388 119.406C207.253 119.736 207.07 120.019 206.84 120.254C206.61 120.484 206.343 120.664 206.038 120.794C205.733 120.919 205.415 120.981 205.085 120.981C204.725 120.981 204.393 120.919 204.088 120.794C203.783 120.664 203.518 120.484 203.293 120.254C203.073 120.019 202.9 119.736 202.775 119.406C202.65 119.076 202.588 118.706 202.588 118.296C202.588 117.876 202.65 117.496 202.775 117.156C202.9 116.816 203.073 116.529 203.293 116.294C203.518 116.059 203.783 115.879 204.088 115.754C204.393 115.624 204.725 115.559 205.085 115.559C205.445 115.559 205.778 115.624 206.083 115.754C206.393 115.879 206.658 116.059 206.878 116.294C207.103 116.529 207.278 116.816 207.403 117.156C207.533 117.496 207.598 117.876 207.598 118.296ZM206.165 118.296C206.165 118.006 206.138 117.764 206.083 117.569C206.028 117.374 205.95 117.216 205.85 117.096C205.755 116.976 205.64 116.891 205.505 116.841C205.375 116.786 205.235 116.759 205.085 116.759C204.935 116.759 204.795 116.786 204.665 116.841C204.535 116.891 204.423 116.976 204.328 117.096C204.233 117.216 204.158 117.374 204.103 117.569C204.053 117.764 204.028 118.006 204.028 118.296C204.028 118.576 204.053 118.811 204.103 119.001C204.158 119.191 204.233 119.344 204.328 119.459C204.423 119.574 204.535 119.656 204.665 119.706C204.795 119.756 204.935 119.781 205.085 119.781C205.235 119.781 205.375 119.756 205.505 119.706C205.64 119.656 205.755 119.574 205.85 119.459C205.95 119.344 206.028 119.191 206.083 119.001C206.138 118.811 206.165 118.576 206.165 118.296Z" fill="#161A41" fill-opacity="0.78"/>
<path d="M248.819 117.382H250.415V118.93H248.819V117.382ZM245.891 112.186H247.463V112.918H251.795V112.186H253.379V115.906H245.891V112.186ZM247.463 114.082V114.73H251.795V114.082H247.463ZM244.607 116.482H254.651V117.742H244.607V116.482ZM245.759 118.438H253.439V121.258H247.343V122.266H245.771V120.166H251.867V119.602H245.759V118.438ZM245.771 121.87H253.727V123.058H245.771V121.87ZM262.798 112.018H264.394V120.094H262.798V112.018ZM263.938 115.198H265.87V116.506H263.938V115.198ZM257.23 121.666H264.79V122.938H257.23V121.666ZM257.23 119.254H258.826V122.23H257.23V119.254ZM258.742 112.726C260.446 112.726 261.766 113.914 261.766 115.558C261.766 117.19 260.446 118.378 258.742 118.378C257.038 118.378 255.718 117.19 255.718 115.558C255.718 113.914 257.038 112.726 258.742 112.726ZM258.742 114.118C257.926 114.118 257.278 114.646 257.278 115.558C257.278 116.458 257.926 116.986 258.742 116.986C259.57 116.986 260.206 116.458 260.206 115.558C260.206 114.646 259.57 114.118 258.742 114.118ZM269.157 113.254H270.465V113.95C270.465 116.074 269.469 117.982 267.321 118.69L266.529 117.43C268.377 116.818 269.157 115.366 269.157 113.95V113.254ZM269.481 113.254H270.777V113.95C270.777 115.246 271.521 116.518 273.309 117.058L272.553 118.306C270.441 117.67 269.481 115.93 269.481 113.95V113.254ZM266.949 112.762H272.949V114.034H266.949V112.762ZM273.837 112.018H275.433V118.606H273.837V112.018ZM274.989 114.574H276.909V115.882H274.989V114.574ZM271.809 118.81C274.113 118.81 275.565 119.614 275.565 120.97C275.565 122.326 274.113 123.13 271.809 123.13C269.493 123.13 268.041 122.326 268.041 120.97C268.041 119.614 269.493 118.81 271.809 118.81ZM271.809 120.058C270.393 120.058 269.625 120.346 269.625 120.97C269.625 121.594 270.393 121.906 271.809 121.906C273.225 121.906 273.981 121.594 273.981 120.97C273.981 120.346 273.225 120.058 271.809 120.058ZM280.22 112.798C281.696 112.798 282.644 114.322 282.644 116.83C282.644 119.35 281.696 120.874 280.22 120.874C278.756 120.874 277.82 119.35 277.82 116.83C277.82 114.322 278.756 112.798 280.22 112.798ZM280.22 114.298C279.62 114.298 279.272 115.138 279.272 116.83C279.272 118.534 279.62 119.362 280.22 119.362C280.832 119.362 281.18 118.534 281.18 116.83C281.18 115.138 280.832 114.298 280.22 114.298ZM285.752 112.018H287.276V123.13H285.752V112.018ZM284.42 116.254H286.256V117.538H284.42V116.254ZM283.316 112.186H284.816V122.626H283.316V112.186Z" fill="#161A41" fill-opacity="0.41"/>
<g filter="url(#filter4_d_145_598)">
<rect x="166" y="142" width="150" height="32.838" rx="7" fill="white"/>
</g>
<g filter="url(#filter5_d_145_598)">
<rect x="166" y="142" width="150" height="32.838" rx="7" fill="white"/>
</g>
<path d="M187.992 158.024C188.067 157.504 188.212 157.049 188.427 156.659C188.642 156.264 188.909 155.936 189.229 155.676C189.554 155.411 189.924 155.214 190.339 155.084C190.759 154.949 191.209 154.881 191.689 154.881C192.189 154.881 192.639 154.954 193.039 155.099C193.444 155.239 193.789 155.436 194.074 155.691C194.359 155.941 194.577 156.236 194.727 156.576C194.882 156.916 194.959 157.284 194.959 157.679C194.959 158.024 194.919 158.329 194.839 158.594C194.764 158.854 194.654 159.081 194.509 159.276C194.364 159.471 194.184 159.636 193.969 159.771C193.754 159.906 193.512 160.019 193.242 160.109C193.892 160.314 194.377 160.626 194.697 161.046C195.017 161.466 195.177 161.994 195.177 162.629C195.177 163.169 195.077 163.646 194.877 164.061C194.677 164.476 194.407 164.826 194.067 165.111C193.727 165.391 193.332 165.604 192.882 165.749C192.437 165.894 191.964 165.966 191.464 165.966C190.919 165.966 190.444 165.904 190.039 165.779C189.634 165.654 189.282 165.469 188.982 165.224C188.682 164.979 188.427 164.679 188.217 164.324C188.007 163.969 187.827 163.559 187.677 163.094L188.494 162.756C188.709 162.666 188.909 162.644 189.094 162.689C189.284 162.729 189.422 162.829 189.507 162.989C189.597 163.164 189.694 163.336 189.799 163.506C189.909 163.676 190.039 163.829 190.189 163.964C190.339 164.094 190.514 164.201 190.714 164.286C190.919 164.366 191.162 164.406 191.442 164.406C191.757 164.406 192.032 164.356 192.267 164.256C192.502 164.151 192.697 164.016 192.852 163.851C193.012 163.686 193.129 163.504 193.204 163.304C193.284 163.099 193.324 162.894 193.324 162.689C193.324 162.429 193.297 162.194 193.242 161.984C193.187 161.769 193.072 161.586 192.897 161.436C192.722 161.286 192.469 161.169 192.139 161.084C191.814 160.999 191.377 160.956 190.827 160.956V159.636C191.282 159.631 191.659 159.589 191.959 159.509C192.259 159.429 192.497 159.319 192.672 159.179C192.852 159.034 192.977 158.861 193.047 158.661C193.117 158.461 193.152 158.241 193.152 158.001C193.152 157.491 193.009 157.104 192.724 156.839C192.439 156.574 192.059 156.441 191.584 156.441C191.364 156.441 191.162 156.474 190.977 156.539C190.792 156.599 190.624 156.686 190.474 156.801C190.329 156.911 190.207 157.041 190.107 157.191C190.007 157.341 189.932 157.506 189.882 157.686C189.797 157.916 189.684 158.069 189.544 158.144C189.409 158.219 189.217 158.236 188.967 158.196L187.992 158.024ZM201.47 157.626C201.47 158.036 201.4 158.406 201.26 158.736C201.125 159.066 200.943 159.349 200.713 159.584C200.483 159.814 200.215 159.991 199.91 160.116C199.605 160.241 199.288 160.304 198.958 160.304C198.598 160.304 198.265 160.241 197.96 160.116C197.655 159.991 197.39 159.814 197.165 159.584C196.945 159.349 196.773 159.066 196.648 158.736C196.523 158.406 196.46 158.036 196.46 157.626C196.46 157.206 196.523 156.826 196.648 156.486C196.773 156.146 196.945 155.859 197.165 155.624C197.39 155.389 197.655 155.209 197.96 155.084C198.265 154.954 198.598 154.889 198.958 154.889C199.318 154.889 199.65 154.954 199.955 155.084C200.265 155.209 200.533 155.389 200.758 155.624C200.983 155.859 201.158 156.146 201.283 156.486C201.408 156.826 201.47 157.206 201.47 157.626ZM200.045 157.626C200.045 157.336 200.015 157.094 199.955 156.899C199.9 156.704 199.823 156.546 199.723 156.426C199.628 156.306 199.513 156.221 199.378 156.171C199.248 156.116 199.108 156.089 198.958 156.089C198.808 156.089 198.668 156.116 198.538 156.171C198.408 156.221 198.295 156.306 198.2 156.426C198.11 156.546 198.038 156.704 197.983 156.899C197.928 157.094 197.9 157.336 197.9 157.626C197.9 157.906 197.928 158.141 197.983 158.331C198.038 158.516 198.11 158.666 198.2 158.781C198.295 158.896 198.408 158.979 198.538 159.029C198.668 159.079 198.808 159.104 198.958 159.104C199.108 159.104 199.248 159.079 199.378 159.029C199.513 158.979 199.628 158.896 199.723 158.781C199.823 158.666 199.9 158.516 199.955 158.331C200.015 158.141 200.045 157.906 200.045 157.626ZM205.078 155.294C205.143 155.219 205.218 155.151 205.303 155.091C205.393 155.031 205.518 155.001 205.678 155.001H207.028L198.973 165.569C198.908 165.649 198.83 165.716 198.74 165.771C198.65 165.821 198.54 165.846 198.41 165.846H197.03L205.078 155.294ZM207.598 163.296C207.598 163.706 207.528 164.076 207.388 164.406C207.253 164.736 207.07 165.019 206.84 165.254C206.61 165.484 206.343 165.664 206.038 165.794C205.733 165.919 205.415 165.981 205.085 165.981C204.725 165.981 204.393 165.919 204.088 165.794C203.783 165.664 203.518 165.484 203.293 165.254C203.073 165.019 202.9 164.736 202.775 164.406C202.65 164.076 202.588 163.706 202.588 163.296C202.588 162.876 202.65 162.496 202.775 162.156C202.9 161.816 203.073 161.529 203.293 161.294C203.518 161.059 203.783 160.879 204.088 160.754C204.393 160.624 204.725 160.559 205.085 160.559C205.445 160.559 205.778 160.624 206.083 160.754C206.393 160.879 206.658 161.059 206.878 161.294C207.103 161.529 207.278 161.816 207.403 162.156C207.533 162.496 207.598 162.876 207.598 163.296ZM206.165 163.296C206.165 163.006 206.138 162.764 206.083 162.569C206.028 162.374 205.95 162.216 205.85 162.096C205.755 161.976 205.64 161.891 205.505 161.841C205.375 161.786 205.235 161.759 205.085 161.759C204.935 161.759 204.795 161.786 204.665 161.841C204.535 161.891 204.423 161.976 204.328 162.096C204.233 162.216 204.158 162.374 204.103 162.569C204.053 162.764 204.028 163.006 204.028 163.296C204.028 163.576 204.053 163.811 204.103 164.001C204.158 164.191 204.233 164.344 204.328 164.459C204.423 164.574 204.535 164.656 204.665 164.706C204.795 164.756 204.935 164.781 205.085 164.781C205.235 164.781 205.375 164.756 205.505 164.706C205.64 164.656 205.755 164.574 205.85 164.459C205.95 164.344 206.028 164.191 206.083 164.001C206.138 163.811 206.165 163.576 206.165 163.296Z" fill="#161A41" fill-opacity="0.78"/>
<path d="M254.833 162.748C255.129 162.748 255.387 162.712 255.607 162.64C255.827 162.564 256.009 162.458 256.153 162.322C256.301 162.182 256.411 162.014 256.483 161.818C256.555 161.618 256.591 161.396 256.591 161.152C256.591 160.92 256.555 160.71 256.483 160.522C256.411 160.334 256.303 160.174 256.159 160.042C256.015 159.91 255.833 159.81 255.613 159.742C255.393 159.67 255.133 159.634 254.833 159.634H253.627V162.748H254.833ZM254.833 158.386C255.413 158.386 255.915 158.454 256.339 158.59C256.763 158.726 257.113 158.916 257.389 159.16C257.665 159.404 257.869 159.696 258.001 160.036C258.137 160.376 258.205 160.748 258.205 161.152C258.205 161.572 258.135 161.958 257.995 162.31C257.855 162.658 257.645 162.958 257.365 163.21C257.085 163.462 256.733 163.658 256.309 163.798C255.889 163.938 255.397 164.008 254.833 164.008H253.627V167.062H252.013V158.386H254.833ZM265.502 159.712H262.886V167.062H261.272V159.712H258.656V158.386H265.502V159.712ZM271.234 159.964C271.186 160.048 271.134 160.11 271.078 160.15C271.026 160.186 270.96 160.204 270.88 160.204C270.796 160.204 270.704 160.174 270.604 160.114C270.508 160.05 270.392 159.98 270.256 159.904C270.12 159.828 269.96 159.76 269.776 159.7C269.596 159.636 269.382 159.604 269.134 159.604C268.91 159.604 268.714 159.632 268.546 159.688C268.378 159.74 268.236 159.814 268.12 159.91C268.008 160.006 267.924 160.122 267.868 160.258C267.812 160.39 267.784 160.536 267.784 160.696C267.784 160.9 267.84 161.07 267.952 161.206C268.068 161.342 268.22 161.458 268.408 161.554C268.596 161.65 268.81 161.736 269.05 161.812C269.29 161.888 269.536 161.97 269.788 162.058C270.04 162.142 270.286 162.242 270.526 162.358C270.766 162.47 270.98 162.614 271.168 162.79C271.356 162.962 271.506 163.174 271.618 163.426C271.734 163.678 271.792 163.984 271.792 164.344C271.792 164.736 271.724 165.104 271.588 165.448C271.456 165.788 271.26 166.086 271 166.342C270.744 166.594 270.43 166.794 270.058 166.942C269.686 167.086 269.26 167.158 268.78 167.158C268.504 167.158 268.232 167.13 267.964 167.074C267.696 167.022 267.438 166.946 267.19 166.846C266.946 166.746 266.716 166.626 266.5 166.486C266.284 166.346 266.092 166.19 265.924 166.018L266.398 165.244C266.438 165.188 266.49 165.142 266.554 165.106C266.618 165.066 266.686 165.046 266.758 165.046C266.858 165.046 266.966 165.088 267.082 165.172C267.198 165.252 267.336 165.342 267.496 165.442C267.656 165.542 267.842 165.634 268.054 165.718C268.27 165.798 268.528 165.838 268.828 165.838C269.288 165.838 269.644 165.73 269.896 165.514C270.148 165.294 270.274 164.98 270.274 164.572C270.274 164.344 270.216 164.158 270.1 164.014C269.988 163.87 269.838 163.75 269.65 163.654C269.462 163.554 269.248 163.47 269.008 163.402C268.768 163.334 268.524 163.26 268.276 163.18C268.028 163.1 267.784 163.004 267.544 162.892C267.304 162.78 267.09 162.634 266.902 162.454C266.714 162.274 266.562 162.05 266.446 161.782C266.334 161.51 266.278 161.176 266.278 160.78C266.278 160.464 266.34 160.156 266.464 159.856C266.592 159.556 266.776 159.29 267.016 159.058C267.256 158.826 267.552 158.64 267.904 158.5C268.256 158.36 268.66 158.29 269.116 158.29C269.628 158.29 270.1 158.37 270.532 158.53C270.964 158.69 271.332 158.914 271.636 159.202L271.234 159.964ZM280.904 162.724C280.904 163.36 280.798 163.944 280.586 164.476C280.374 165.008 280.076 165.466 279.692 165.85C279.308 166.234 278.846 166.532 278.306 166.744C277.766 166.956 277.166 167.062 276.506 167.062H273.2V158.386H276.506C277.166 158.386 277.766 158.494 278.306 158.71C278.846 158.922 279.308 159.22 279.692 159.604C280.076 159.984 280.374 160.44 280.586 160.972C280.798 161.504 280.904 162.088 280.904 162.724ZM279.248 162.724C279.248 162.248 279.184 161.822 279.056 161.446C278.932 161.066 278.75 160.746 278.51 160.486C278.274 160.222 277.986 160.02 277.646 159.88C277.31 159.74 276.93 159.67 276.506 159.67H274.82V165.778H276.506C276.93 165.778 277.31 165.708 277.646 165.568C277.986 165.428 278.274 165.228 278.51 164.968C278.75 164.704 278.932 164.384 279.056 164.008C279.184 163.628 279.248 163.2 279.248 162.724Z" fill="#161A41" fill-opacity="0.41"/>
<g filter="url(#filter6_d_145_598)">
<rect x="166" y="188" width="150" height="32.838" rx="7" fill="white"/>
</g>
<g filter="url(#filter7_d_145_598)">
<rect x="166" y="188" width="150" height="32.838" rx="7" fill="white"/>
</g>
<path d="M194.944 210.459V211.846H188.944V210.459H191.142V204.136C191.142 203.886 191.149 203.629 191.164 203.364L189.604 204.669C189.514 204.739 189.424 204.784 189.334 204.804C189.249 204.819 189.167 204.819 189.087 204.804C189.012 204.789 188.944 204.764 188.884 204.729C188.824 204.689 188.779 204.646 188.749 204.601L188.164 203.799L191.472 200.986H192.994V210.459H194.944ZM201.47 203.626C201.47 204.036 201.4 204.406 201.26 204.736C201.125 205.066 200.943 205.349 200.713 205.584C200.483 205.814 200.215 205.991 199.91 206.116C199.605 206.241 199.288 206.304 198.958 206.304C198.598 206.304 198.265 206.241 197.96 206.116C197.655 205.991 197.39 205.814 197.165 205.584C196.945 205.349 196.773 205.066 196.648 204.736C196.523 204.406 196.46 204.036 196.46 203.626C196.46 203.206 196.523 202.826 196.648 202.486C196.773 202.146 196.945 201.859 197.165 201.624C197.39 201.389 197.655 201.209 197.96 201.084C198.265 200.954 198.598 200.889 198.958 200.889C199.318 200.889 199.65 200.954 199.955 201.084C200.265 201.209 200.533 201.389 200.758 201.624C200.983 201.859 201.158 202.146 201.283 202.486C201.408 202.826 201.47 203.206 201.47 203.626ZM200.045 203.626C200.045 203.336 200.015 203.094 199.955 202.899C199.9 202.704 199.823 202.546 199.723 202.426C199.628 202.306 199.513 202.221 199.378 202.171C199.248 202.116 199.108 202.089 198.958 202.089C198.808 202.089 198.668 202.116 198.538 202.171C198.408 202.221 198.295 202.306 198.2 202.426C198.11 202.546 198.038 202.704 197.983 202.899C197.928 203.094 197.9 203.336 197.9 203.626C197.9 203.906 197.928 204.141 197.983 204.331C198.038 204.516 198.11 204.666 198.2 204.781C198.295 204.896 198.408 204.979 198.538 205.029C198.668 205.079 198.808 205.104 198.958 205.104C199.108 205.104 199.248 205.079 199.378 205.029C199.513 204.979 199.628 204.896 199.723 204.781C199.823 204.666 199.9 204.516 199.955 204.331C200.015 204.141 200.045 203.906 200.045 203.626ZM205.078 201.294C205.143 201.219 205.218 201.151 205.303 201.091C205.393 201.031 205.518 201.001 205.678 201.001H207.028L198.973 211.569C198.908 211.649 198.83 211.716 198.74 211.771C198.65 211.821 198.54 211.846 198.41 211.846H197.03L205.078 201.294ZM207.598 209.296C207.598 209.706 207.528 210.076 207.388 210.406C207.253 210.736 207.07 211.019 206.84 211.254C206.61 211.484 206.343 211.664 206.038 211.794C205.733 211.919 205.415 211.981 205.085 211.981C204.725 211.981 204.393 211.919 204.088 211.794C203.783 211.664 203.518 211.484 203.293 211.254C203.073 211.019 202.9 210.736 202.775 210.406C202.65 210.076 202.588 209.706 202.588 209.296C202.588 208.876 202.65 208.496 202.775 208.156C202.9 207.816 203.073 207.529 203.293 207.294C203.518 207.059 203.783 206.879 204.088 206.754C204.393 206.624 204.725 206.559 205.085 206.559C205.445 206.559 205.778 206.624 206.083 206.754C206.393 206.879 206.658 207.059 206.878 207.294C207.103 207.529 207.278 207.816 207.403 208.156C207.533 208.496 207.598 208.876 207.598 209.296ZM206.165 209.296C206.165 209.006 206.138 208.764 206.083 208.569C206.028 208.374 205.95 208.216 205.85 208.096C205.755 207.976 205.64 207.891 205.505 207.841C205.375 207.786 205.235 207.759 205.085 207.759C204.935 207.759 204.795 207.786 204.665 207.841C204.535 207.891 204.423 207.976 204.328 208.096C204.233 208.216 204.158 208.374 204.103 208.569C204.053 208.764 204.028 209.006 204.028 209.296C204.028 209.576 204.053 209.811 204.103 210.001C204.158 210.191 204.233 210.344 204.328 210.459C204.423 210.574 204.535 210.656 204.665 210.706C204.795 210.756 204.935 210.781 205.085 210.781C205.235 210.781 205.375 210.756 205.505 210.706C205.64 210.656 205.755 210.574 205.85 210.459C205.95 210.344 206.028 210.191 206.083 210.001C206.138 209.811 206.165 209.576 206.165 209.296Z" fill="#161A41" fill-opacity="0.78"/>
<path d="M250.138 211.55H260.194V212.846H250.138V211.55ZM254.362 209.09H255.958V211.91H254.362V209.09ZM254.314 204.47H255.658V204.866C255.658 207.206 253.978 209.066 251.146 209.582L250.522 208.322C252.994 207.938 254.314 206.402 254.314 204.866V204.47ZM254.638 204.47H255.982V204.866C255.982 206.402 257.302 207.89 259.834 208.262L259.222 209.522C256.342 209.018 254.638 207.206 254.638 204.866V204.47ZM250.966 203.858H259.33V205.13H250.966V203.858ZM265.377 208.31H266.973V209.858H265.377V208.31ZM266.193 203.126C268.725 203.126 270.213 203.786 270.213 205.01C270.213 206.234 268.725 206.906 266.193 206.906C263.649 206.906 262.173 206.234 262.173 205.01C262.173 203.786 263.649 203.126 266.193 203.126ZM266.193 204.29C264.585 204.29 263.829 204.518 263.829 205.01C263.829 205.526 264.585 205.742 266.193 205.742C267.801 205.742 268.557 205.526 268.557 205.01C268.557 204.518 267.801 204.29 266.193 204.29ZM261.165 207.386H271.209V208.646H261.165V207.386ZM262.317 209.366H269.997V212.222H263.901V213.206H262.329V211.118H268.425V210.554H262.317V209.366ZM262.329 212.858H270.285V214.058H262.329V212.858ZM272.204 208.142H282.248V209.402H272.204V208.142ZM277.208 210.014C279.608 210.014 281.06 210.77 281.06 212.078C281.06 213.386 279.608 214.13 277.208 214.13C274.808 214.13 273.344 213.386 273.344 212.078C273.344 210.77 274.808 210.014 277.208 210.014ZM277.208 211.25C275.72 211.25 274.964 211.502 274.964 212.078C274.964 212.642 275.72 212.906 277.208 212.906C278.696 212.906 279.452 212.642 279.452 212.078C279.452 211.502 278.696 211.25 277.208 211.25ZM276.128 204.158H277.544V204.434C277.544 206.09 276.044 207.47 273.176 207.722L272.624 206.486C275.06 206.27 276.128 205.298 276.128 204.434V204.158ZM276.908 204.158H278.324V204.434C278.324 205.298 279.38 206.27 281.828 206.486L281.276 207.722C278.42 207.47 276.908 206.102 276.908 204.434V204.158ZM273.116 203.534H281.348V204.794H273.116V203.534Z" fill="#161A41" fill-opacity="0.41"/>
<circle cx="72" cy="63" r="50" fill="#A1B2B7" fill-opacity="0.17"/>
<path d="M72 13C80.7808 13 89.4067 15.3124 97.01 19.7045C104.613 24.0967 110.926 30.4137 115.313 38.0201C119.7 45.6265 122.006 54.254 122 63.0347C121.994 71.8155 119.676 80.4398 115.278 88.0401C110.881 95.6404 104.559 101.949 96.9498 106.33C89.3404 110.712 80.7113 113.012 71.9305 113C63.1498 112.988 54.5271 110.663 46.9298 106.261C39.3326 101.858 33.0288 95.5322 28.6525 87.9197L72 63L72 13Z" fill="#A1B2B7" fill-opacity="0.17"/>
<path d="M72 13C84.218 13 96.0132 17.4737 105.158 25.5762C114.303 33.6787 120.165 44.8493 121.636 56.9784L72 63L72 13Z" fill="#FDD563"/>
<circle cx="71.3631" cy="63.6369" r="36.6242" fill="white"/>
<rect x="12.5" y="125.5" width="122" height="86" rx="15.5" fill="white"/>
<rect x="12.5" y="125.5" width="122" height="86" rx="15.5" stroke="#00394C"/>
<path d="M28.4773 145.598V144.273H35.4403V145.598H32.7429V153H31.1747V145.598H28.4773ZM38.2204 153.128C37.5812 153.128 37.0272 152.987 36.5585 152.706C36.0897 152.425 35.7261 152.031 35.4675 151.526C35.2119 151.02 35.084 150.429 35.084 149.753C35.084 149.077 35.2119 148.484 35.4675 147.976C35.7261 147.467 36.0897 147.072 36.5585 146.791C37.0272 146.51 37.5812 146.369 38.2204 146.369C38.8596 146.369 39.4136 146.51 39.8823 146.791C40.3511 147.072 40.7133 147.467 40.969 147.976C41.2275 148.484 41.3567 149.077 41.3567 149.753C41.3567 150.429 41.2275 151.02 40.969 151.526C40.7133 152.031 40.3511 152.425 39.8823 152.706C39.4136 152.987 38.8596 153.128 38.2204 153.128ZM38.2289 151.892C38.5755 151.892 38.8653 151.797 39.0982 151.607C39.3312 151.413 39.5045 151.155 39.6181 150.831C39.7346 150.507 39.7928 150.146 39.7928 149.749C39.7928 149.348 39.7346 148.986 39.6181 148.662C39.5045 148.335 39.3312 148.075 39.0982 147.882C38.8653 147.689 38.5755 147.592 38.2289 147.592C37.8738 147.592 37.5783 147.689 37.3425 147.882C37.1096 148.075 36.9349 148.335 36.8184 148.662C36.7048 148.986 36.6479 149.348 36.6479 149.749C36.6479 150.146 36.7048 150.507 36.8184 150.831C36.9349 151.155 37.1096 151.413 37.3425 151.607C37.5783 151.797 37.8738 151.892 38.2289 151.892ZM42.2661 155.455V146.455H43.7831V147.537H43.8726C43.9521 147.378 44.0643 147.209 44.2092 147.03C44.3541 146.848 44.5501 146.693 44.7973 146.565C45.0445 146.435 45.3598 146.369 45.7433 146.369C46.249 146.369 46.705 146.499 47.1112 146.757C47.5203 147.013 47.8442 147.392 48.0828 147.895C48.3243 148.395 48.445 149.009 48.445 149.736C48.445 150.455 48.3271 151.065 48.0913 151.568C47.8555 152.071 47.5345 152.455 47.1283 152.719C46.722 152.983 46.2618 153.115 45.7476 153.115C45.3726 153.115 45.0615 153.053 44.8143 152.928C44.5672 152.803 44.3683 152.652 44.2178 152.476C44.07 152.297 43.955 152.128 43.8726 151.969H43.8087V155.455H42.2661ZM43.7788 149.727C43.7788 150.151 43.8385 150.521 43.9578 150.839C44.08 151.158 44.2547 151.406 44.482 151.585C44.7121 151.761 44.9905 151.849 45.3172 151.849C45.6581 151.849 45.9436 151.759 46.1737 151.577C46.4038 151.392 46.5771 151.141 46.6936 150.822C46.8129 150.501 46.8726 150.136 46.8726 149.727C46.8726 149.321 46.8143 148.96 46.6979 148.645C46.5814 148.33 46.4081 148.082 46.178 147.903C45.9479 147.724 45.6609 147.635 45.3172 147.635C44.9876 147.635 44.7078 147.722 44.4777 147.895C44.2476 148.068 44.0729 148.311 43.9536 148.624C43.8371 148.936 43.7788 149.304 43.7788 149.727ZM54.9682 153H52.0108V144.273H55.0278C55.8943 144.273 56.6386 144.447 57.2608 144.797C57.8858 145.143 58.3659 145.642 58.7011 146.293C59.0364 146.943 59.204 147.722 59.204 148.628C59.204 149.537 59.0349 150.318 58.6969 150.972C58.3616 151.625 57.8773 152.126 57.2437 152.476C56.6131 152.825 55.8545 153 54.9682 153ZM53.5918 151.632H54.8915C55.4994 151.632 56.0065 151.521 56.4128 151.3C56.819 151.075 57.1244 150.741 57.329 150.298C57.5335 149.852 57.6358 149.295 57.6358 148.628C57.6358 147.96 57.5335 147.406 57.329 146.966C57.1244 146.523 56.8219 146.192 56.4213 145.973C56.0236 145.751 55.5293 145.641 54.9384 145.641H53.5918V151.632ZM62.1214 153.132C61.7067 153.132 61.3331 153.058 61.0007 152.911C60.6712 152.76 60.4098 152.538 60.2166 152.246C60.0263 151.953 59.9311 151.592 59.9311 151.163C59.9311 150.794 59.9993 150.489 60.1357 150.247C60.272 150.006 60.4581 149.812 60.6939 149.668C60.9297 149.523 61.1953 149.413 61.4908 149.339C61.7891 149.263 62.0973 149.207 62.4155 149.173C62.799 149.134 63.1101 149.098 63.3487 149.067C63.5874 149.033 63.7607 148.982 63.8686 148.913C63.9794 148.842 64.0348 148.733 64.0348 148.585V148.56C64.0348 148.239 63.9396 147.99 63.7493 147.814C63.5589 147.638 63.2848 147.55 62.9268 147.55C62.549 147.55 62.2493 147.632 62.0277 147.797C61.8089 147.962 61.6612 148.156 61.5845 148.381L60.1442 148.176C60.2578 147.778 60.4453 147.446 60.7067 147.179C60.968 146.909 61.2876 146.707 61.6655 146.574C62.0433 146.438 62.4609 146.369 62.9183 146.369C63.2337 146.369 63.5476 146.406 63.8601 146.48C64.1726 146.554 64.4581 146.676 64.7166 146.847C64.9751 147.014 65.1825 147.243 65.3388 147.533C65.4979 147.822 65.5774 148.185 65.5774 148.619V153H64.0945V152.101H64.0433C63.9496 152.283 63.8175 152.453 63.647 152.612C63.4794 152.768 63.2678 152.895 63.0121 152.991C62.7592 153.085 62.4624 153.132 62.1214 153.132ZM62.522 151.999C62.8317 151.999 63.1001 151.937 63.3274 151.815C63.5547 151.69 63.7294 151.526 63.8516 151.321C63.9766 151.116 64.0391 150.893 64.0391 150.652V149.881C63.9908 149.92 63.9084 149.957 63.7919 149.991C63.6783 150.026 63.5504 150.055 63.4084 150.081C63.2663 150.107 63.1257 150.129 62.9865 150.149C62.8473 150.169 62.7266 150.186 62.6243 150.2C62.3942 150.232 62.1882 150.283 62.0064 150.354C61.8246 150.425 61.6811 150.524 61.576 150.652C61.4709 150.777 61.4183 150.939 61.4183 151.138C61.4183 151.422 61.522 151.636 61.7294 151.781C61.9368 151.926 62.201 151.999 62.522 151.999ZM69.997 146.455V147.648H66.2342V146.455H69.997ZM67.1632 144.886H68.7058V151.031C68.7058 151.239 68.7371 151.398 68.7996 151.509C68.8649 151.616 68.9501 151.69 69.0553 151.73C69.1604 151.77 69.2768 151.79 69.4047 151.79C69.5013 151.79 69.5893 151.783 69.6689 151.768C69.7513 151.754 69.8138 151.741 69.8564 151.73L70.1163 152.936C70.0339 152.964 69.916 152.996 69.7626 153.03C69.6121 153.064 69.4274 153.084 69.2087 153.089C68.8223 153.101 68.4743 153.043 68.1646 152.915C67.855 152.784 67.6092 152.582 67.4274 152.31C67.2484 152.037 67.1604 151.696 67.1632 151.287V144.886ZM73.7146 153.128C73.0583 153.128 72.4915 152.991 72.0143 152.719C71.5398 152.443 71.1748 152.054 70.9191 151.551C70.6634 151.045 70.5356 150.45 70.5356 149.766C70.5356 149.092 70.6634 148.501 70.9191 147.993C71.1776 147.482 71.5384 147.084 72.0015 146.8C72.4646 146.513 73.0086 146.369 73.6336 146.369C74.037 146.369 74.4177 146.435 74.7756 146.565C75.1364 146.693 75.4546 146.892 75.7302 147.162C76.0086 147.432 76.2273 147.776 76.3864 148.193C76.5455 148.608 76.6251 149.102 76.6251 149.676V150.149H71.26V149.109H75.1464C75.1435 148.814 75.0796 148.551 74.9546 148.321C74.8296 148.088 74.6549 147.905 74.4305 147.771C74.2089 147.638 73.9504 147.571 73.6549 147.571C73.3396 147.571 73.0626 147.648 72.8239 147.801C72.5853 147.952 72.3992 148.151 72.2657 148.398C72.135 148.642 72.0683 148.911 72.0654 149.203V150.111C72.0654 150.491 72.135 150.818 72.2742 151.091C72.4134 151.361 72.608 151.568 72.858 151.713C73.108 151.855 73.4006 151.926 73.7359 151.926C73.9603 151.926 74.1634 151.895 74.3452 151.832C74.5271 151.767 74.6847 151.672 74.8183 151.547C74.9518 151.422 75.0526 151.267 75.1208 151.082L76.5612 151.244C76.4702 151.625 76.2969 151.957 76.0413 152.241C75.7884 152.523 75.4646 152.741 75.0697 152.898C74.6748 153.051 74.2231 153.128 73.7146 153.128Z" fill="#7D7D7D"/>
<path d="M29.0341 175V173.477L33.0739 169.517C33.4602 169.127 33.7822 168.78 34.0398 168.477C34.2973 168.174 34.4905 167.881 34.6193 167.597C34.7481 167.312 34.8125 167.009 34.8125 166.688C34.8125 166.32 34.7292 166.006 34.5625 165.744C34.3958 165.479 34.1667 165.275 33.875 165.131C33.5833 164.987 33.2519 164.915 32.8807 164.915C32.4981 164.915 32.1629 164.994 31.875 165.153C31.5871 165.309 31.3636 165.53 31.2045 165.818C31.0492 166.106 30.9716 166.449 30.9716 166.847H28.9659C28.9659 166.108 29.1345 165.466 29.4716 164.92C29.8087 164.375 30.2727 163.953 30.8636 163.653C31.4583 163.354 32.1402 163.205 32.9091 163.205C33.6894 163.205 34.375 163.35 34.9659 163.642C35.5568 163.934 36.0152 164.333 36.3409 164.841C36.6705 165.348 36.8352 165.928 36.8352 166.58C36.8352 167.015 36.7519 167.443 36.5852 167.864C36.4186 168.284 36.125 168.75 35.7045 169.261C35.2879 169.773 34.7027 170.392 33.9489 171.119L31.9432 173.159V173.239H37.0114V175H29.0341ZM38.3114 172.841V171.165L43.2489 163.364H44.6466V165.75H43.7943L40.4705 171.017V171.108H47.3625V172.841H38.3114ZM43.8625 175V172.33L43.8852 171.58V163.364H45.8739V175H43.8625ZM49.9395 175.125C49.5948 175.125 49.2993 175.004 49.0531 174.761C48.8069 174.519 48.6857 174.223 48.6895 173.875C48.6857 173.534 48.8069 173.242 49.0531 173C49.2993 172.758 49.5948 172.636 49.9395 172.636C50.2728 172.636 50.5626 172.758 50.8088 173C51.0588 173.242 51.1857 173.534 51.1895 173.875C51.1857 174.106 51.1251 174.316 51.0077 174.506C50.894 174.695 50.7425 174.847 50.5531 174.96C50.3675 175.07 50.163 175.125 49.9395 175.125ZM56.3858 163.364V175H54.2778V165.415H54.2097L51.4881 167.153V165.222L54.3801 163.364H56.3858ZM63.4415 175.222C62.5059 175.222 61.7028 174.985 61.0324 174.511C60.3657 174.034 59.8525 173.347 59.4926 172.449C59.1366 171.547 58.9585 170.462 58.9585 169.193C58.9623 167.924 59.1422 166.845 59.4983 165.955C59.8581 165.061 60.3714 164.379 61.0381 163.909C61.7085 163.439 62.5097 163.205 63.4415 163.205C64.3733 163.205 65.1744 163.439 65.8449 163.909C66.5153 164.379 67.0286 165.061 67.3847 165.955C67.7445 166.848 67.9244 167.928 67.9244 169.193C67.9244 170.466 67.7445 171.553 67.3847 172.455C67.0286 173.352 66.5153 174.038 65.8449 174.511C65.1782 174.985 64.3771 175.222 63.4415 175.222ZM63.4415 173.443C64.1688 173.443 64.7426 173.085 65.1631 172.369C65.5873 171.65 65.7994 170.591 65.7994 169.193C65.7994 168.269 65.7028 167.492 65.5097 166.864C65.3165 166.235 65.0438 165.761 64.6915 165.443C64.3392 165.121 63.9225 164.96 63.4415 164.96C62.718 164.96 62.146 165.32 61.7256 166.04C61.3051 166.756 61.093 167.807 61.0892 169.193C61.0854 170.121 61.1782 170.902 61.3676 171.534C61.5608 172.167 61.8335 172.644 62.1858 172.966C62.5381 173.284 62.9566 173.443 63.4415 173.443ZM70.4489 175.125C70.1042 175.125 69.8087 175.004 69.5625 174.761C69.3163 174.519 69.1951 174.223 69.1989 173.875C69.1951 173.534 69.3163 173.242 69.5625 173C69.8087 172.758 70.1042 172.636 70.4489 172.636C70.7822 172.636 71.072 172.758 71.3182 173C71.5682 173.242 71.6951 173.534 71.6989 173.875C71.6951 174.106 71.6345 174.316 71.517 174.506C71.4034 174.695 71.2519 174.847 71.0625 174.96C70.8769 175.07 70.6723 175.125 70.4489 175.125ZM76.8952 163.364V175H74.7872V165.415H74.719L71.9974 167.153V165.222L74.8895 163.364H76.8952ZM83.8259 175.159C83.0077 175.159 82.2804 175.019 81.644 174.739C81.0115 174.458 80.5115 174.068 80.144 173.568C79.7766 173.068 79.5815 172.491 79.5588 171.835H81.6952C81.7141 172.15 81.8183 172.424 82.0077 172.659C82.1971 172.89 82.449 173.07 82.7634 173.199C83.0777 173.328 83.43 173.392 83.8202 173.392C84.2368 173.392 84.6062 173.32 84.9281 173.176C85.2501 173.028 85.502 172.824 85.6838 172.562C85.8656 172.301 85.9546 172 85.9509 171.659C85.9546 171.307 85.8637 170.996 85.6781 170.727C85.4925 170.458 85.2236 170.248 84.8713 170.097C84.5228 169.945 84.1024 169.869 83.6099 169.869H82.5815V168.244H83.6099C84.0152 168.244 84.3694 168.174 84.6724 168.034C84.9793 167.894 85.2198 167.697 85.394 167.443C85.5683 167.186 85.6535 166.888 85.6497 166.551C85.6535 166.222 85.5796 165.936 85.4281 165.693C85.2804 165.447 85.0702 165.256 84.7974 165.119C84.5285 164.983 84.2122 164.915 83.8486 164.915C83.4925 164.915 83.163 164.979 82.8599 165.108C82.5569 165.237 82.3126 165.42 82.127 165.659C81.9414 165.894 81.8429 166.174 81.8315 166.5H79.8031C79.8183 165.848 80.0058 165.277 80.3656 164.784C80.7293 164.288 81.2141 163.902 81.8202 163.625C82.4262 163.345 83.1062 163.205 83.8599 163.205C84.6365 163.205 85.3107 163.35 85.8827 163.642C86.4584 163.93 86.9035 164.318 87.2179 164.807C87.5323 165.295 87.6895 165.835 87.6895 166.426C87.6933 167.081 87.5001 167.631 87.1099 168.074C86.7236 168.517 86.216 168.807 85.5872 168.943V169.034C86.4054 169.148 87.0323 169.451 87.4679 169.943C87.9073 170.432 88.1251 171.04 88.1213 171.767C88.1213 172.419 87.9357 173.002 87.5645 173.517C87.1971 174.028 86.6895 174.43 86.0418 174.722C85.3978 175.013 84.6592 175.159 83.8259 175.159Z" fill="#00394C"/>
<path d="M28.539 190.612H37.559V191.36H28.539V190.612ZM32.565 191.074H33.467V194.858H32.565V191.074ZM33.027 185.31C35.106 185.31 36.503 186.157 36.503 187.488C36.503 188.819 35.106 189.666 33.027 189.666C30.959 189.666 29.551 188.819 29.551 187.488C29.551 186.157 30.959 185.31 33.027 185.31ZM33.027 186.047C31.509 186.047 30.475 186.608 30.475 187.488C30.475 188.368 31.509 188.929 33.027 188.929C34.545 188.929 35.568 188.368 35.568 187.488C35.568 186.608 34.545 186.047 33.027 186.047ZM42.3951 189.589H43.2971V191.118H42.3951V189.589ZM42.8571 185.035C45.0461 185.035 46.3551 185.64 46.3551 186.751C46.3551 187.862 45.0461 188.478 42.8571 188.478C40.6571 188.478 39.3591 187.862 39.3591 186.751C39.3591 185.64 40.6571 185.035 42.8571 185.035ZM42.8571 185.728C41.2291 185.728 40.2941 186.102 40.2941 186.751C40.2941 187.411 41.2291 187.785 42.8571 187.785C44.4741 187.785 45.4091 187.411 45.4091 186.751C45.4091 186.102 44.4741 185.728 42.8571 185.728ZM38.3581 189.116H47.3451V189.864H38.3581V189.116ZM39.4471 190.777H46.2011V193.021H40.3711V194.231H39.4691V192.361H45.2991V191.481H39.4471V190.777ZM39.4691 194.033H46.4981V194.748H39.4691V194.033ZM48.1773 189.644H57.1643V190.381H48.1773V189.644ZM52.6653 191.239C54.7883 191.239 56.0753 191.899 56.0753 193.043C56.0753 194.187 54.7883 194.836 52.6653 194.836C50.5423 194.836 49.2553 194.187 49.2553 193.043C49.2553 191.899 50.5423 191.239 52.6653 191.239ZM52.6653 191.965C51.1143 191.965 50.1793 192.35 50.1793 193.043C50.1793 193.725 51.1143 194.121 52.6653 194.121C54.2273 194.121 55.1513 193.725 55.1513 193.043C55.1513 192.35 54.2273 191.965 52.6653 191.965ZM52.0823 185.816H52.8963V186.113C52.8963 187.708 51.0703 188.797 49.0133 189.039L48.6833 188.324C50.4653 188.126 52.0823 187.235 52.0823 186.113V185.816ZM52.4673 185.816H53.2703V186.113C53.2703 187.235 54.8873 188.126 56.6693 188.324L56.3393 189.039C54.2823 188.797 52.4673 187.708 52.4673 186.113V185.816ZM49.0023 185.42H56.3613V186.157H49.0023V185.42ZM63.6262 185.891C63.9543 185.893 64.2824 185.956 64.6105 186.078C64.9387 186.201 65.2382 186.404 65.509 186.687C65.7798 186.969 65.9973 187.353 66.1613 187.84C66.3254 188.327 66.4074 188.937 66.4074 189.672C66.4074 190.383 66.3397 191.014 66.2043 191.566C66.0715 192.116 65.8788 192.579 65.6262 192.957C65.3762 193.335 65.0715 193.621 64.7121 193.816C64.3553 194.012 63.9517 194.109 63.5012 194.109C63.0533 194.109 62.6535 194.021 62.302 193.844C61.953 193.664 61.6665 193.415 61.4426 193.098C61.2212 192.777 61.0793 192.406 61.0168 191.984H61.9699C62.0559 192.352 62.2264 192.655 62.4816 192.895C62.7395 193.132 63.0793 193.25 63.5012 193.25C64.1184 193.25 64.6053 192.98 64.9621 192.441C65.3215 191.902 65.5012 191.141 65.5012 190.156H65.4387C65.2928 190.375 65.1197 190.564 64.9191 190.723C64.7186 190.882 64.496 191.004 64.2512 191.09C64.0064 191.176 63.746 191.219 63.4699 191.219C63.0116 191.219 62.591 191.105 62.2082 190.879C61.828 190.65 61.5233 190.336 61.2941 189.937C61.0676 189.536 60.9543 189.078 60.9543 188.562C60.9543 188.073 61.0637 187.625 61.2824 187.219C61.5038 186.81 61.8137 186.484 62.2121 186.242C62.6132 186 63.0845 185.883 63.6262 185.891ZM63.6262 186.75C63.298 186.75 63.0025 186.832 62.7395 186.996C62.479 187.158 62.272 187.376 62.1184 187.652C61.9673 187.926 61.8918 188.229 61.8918 188.562C61.8918 188.896 61.9647 189.199 62.1105 189.473C62.259 189.743 62.4608 189.96 62.716 190.121C62.9738 190.28 63.2668 190.359 63.5949 190.359C63.8423 190.359 64.0728 190.311 64.2863 190.215C64.4999 190.116 64.6861 189.982 64.8449 189.812C65.0064 189.641 65.1327 189.447 65.2238 189.23C65.315 189.012 65.3605 188.784 65.3605 188.547C65.3605 188.234 65.285 187.941 65.134 187.668C64.9855 187.395 64.7798 187.173 64.5168 187.004C64.2564 186.835 63.9595 186.75 63.6262 186.75ZM67.6436 194V193.297L70.2842 190.406C70.5941 190.068 70.8493 189.773 71.0498 189.523C71.2503 189.271 71.3988 189.034 71.4951 188.812C71.5941 188.589 71.6436 188.354 71.6436 188.109C71.6436 187.828 71.5758 187.585 71.4404 187.379C71.3076 187.173 71.1253 187.014 70.8936 186.902C70.6618 186.79 70.4014 186.734 70.1123 186.734C69.805 186.734 69.5368 186.798 69.3076 186.926C69.0811 187.051 68.9053 187.227 68.7803 187.453C68.6579 187.68 68.5967 187.945 68.5967 188.25H67.6748C67.6748 187.781 67.7829 187.37 67.999 187.016C68.2152 186.661 68.5094 186.385 68.8818 186.187C69.2568 185.99 69.6774 185.891 70.1436 185.891C70.6123 185.891 71.0277 185.99 71.3896 186.187C71.7516 186.385 72.0355 186.652 72.2412 186.988C72.4469 187.324 72.5498 187.698 72.5498 188.109C72.5498 188.404 72.4964 188.691 72.3896 188.973C72.2855 189.251 72.1032 189.562 71.8428 189.906C71.585 190.247 71.2269 190.664 70.7686 191.156L68.9717 193.078V193.141H72.6904V194H67.6436ZM78.0818 192.5V192.078C78.0818 191.786 78.1417 191.52 78.2615 191.277C78.3839 191.033 78.561 190.837 78.7928 190.691C79.0271 190.543 79.311 190.469 79.6443 190.469C79.9829 190.469 80.2667 190.543 80.4959 190.691C80.7251 190.837 80.8982 191.033 81.0154 191.277C81.1326 191.52 81.1912 191.786 81.1912 192.078V192.5C81.1912 192.792 81.1313 193.06 81.0115 193.305C80.8943 193.547 80.7199 193.742 80.4881 193.891C80.2589 194.036 79.9777 194.109 79.6443 194.109C79.3058 194.109 79.0206 194.036 78.7889 193.891C78.5571 193.742 78.3813 193.547 78.2615 193.305C78.1417 193.06 78.0818 192.792 78.0818 192.5ZM78.8787 192.078V192.5C78.8787 192.742 78.936 192.96 79.0506 193.152C79.1652 193.342 79.3631 193.437 79.6443 193.437C79.9178 193.437 80.1105 193.342 80.2225 193.152C80.337 192.96 80.3943 192.742 80.3943 192.5V192.078C80.3943 191.836 80.3396 191.62 80.2303 191.43C80.1209 191.237 79.9256 191.141 79.6443 191.141C79.3709 191.141 79.1743 191.237 79.0545 191.43C78.9373 191.62 78.8787 191.836 78.8787 192.078ZM74.0975 187.922V187.5C74.0975 187.208 74.1574 186.941 74.2771 186.699C74.3995 186.454 74.5766 186.259 74.8084 186.113C75.0428 185.965 75.3266 185.891 75.66 185.891C75.9985 185.891 76.2824 185.965 76.5115 186.113C76.7407 186.259 76.9139 186.454 77.0311 186.699C77.1482 186.941 77.2068 187.208 77.2068 187.5V187.922C77.2068 188.214 77.1469 188.482 77.0271 188.727C76.91 188.969 76.7355 189.164 76.5037 189.312C76.2745 189.458 75.9933 189.531 75.66 189.531C75.3214 189.531 75.0363 189.458 74.8045 189.312C74.5727 189.164 74.3969 188.969 74.2771 188.727C74.1574 188.482 74.0975 188.214 74.0975 187.922ZM74.8943 187.5V187.922C74.8943 188.164 74.9516 188.382 75.0662 188.574C75.1808 188.764 75.3787 188.859 75.66 188.859C75.9334 188.859 76.1261 188.764 76.2381 188.574C76.3527 188.382 76.41 188.164 76.41 187.922V187.5C76.41 187.258 76.3553 187.042 76.2459 186.852C76.1365 186.659 75.9412 186.562 75.66 186.562C75.3865 186.562 75.1899 186.659 75.0701 186.852C74.9529 187.042 74.8943 187.258 74.8943 187.5ZM74.3943 194L79.8943 186H80.785L75.285 194H74.3943Z" fill="#454545"/>
<path d="M53.9191 62.59C54.0257 61.8633 54.2291 61.23 54.5291 60.69C54.8357 60.15 55.2124 59.7 55.6591 59.34C56.1124 58.98 56.6291 58.7133 57.2091 58.54C57.7891 58.36 58.4124 58.27 59.0791 58.27C59.7991 58.27 60.4391 58.3733 60.9991 58.58C61.5591 58.78 62.0324 59.0533 62.4191 59.4C62.8057 59.7467 63.0991 60.15 63.2991 60.61C63.4991 61.0633 63.5991 61.5433 63.5991 62.05C63.5991 62.51 63.5524 62.9167 63.4591 63.27C63.3657 63.6167 63.2257 63.92 63.0391 64.18C62.8591 64.4333 62.6324 64.65 62.3591 64.83C62.0924 65.0033 61.7857 65.15 61.4391 65.27C63.0524 65.8367 63.8591 66.9367 63.8591 68.57C63.8591 69.3433 63.7191 70.0167 63.4391 70.59C63.1591 71.1633 62.7824 71.64 62.3091 72.02C61.8424 72.4 61.2991 72.6867 60.6791 72.88C60.0591 73.0667 59.4124 73.16 58.7391 73.16C58.0457 73.16 57.4291 73.0867 56.8891 72.94C56.3491 72.7867 55.8691 72.5533 55.4491 72.24C55.0291 71.92 54.6591 71.5133 54.3391 71.02C54.0257 70.5267 53.7524 69.94 53.5191 69.26L54.8991 68.7C55.2591 68.56 55.5924 68.5233 55.8991 68.59C56.2057 68.6567 56.4257 68.81 56.5591 69.05C56.8591 69.6033 57.1757 70.0067 57.5091 70.26C57.8491 70.5067 58.2457 70.63 58.6991 70.63C59.0457 70.63 59.3457 70.5733 59.5991 70.46C59.8591 70.34 60.0724 70.19 60.2391 70.01C60.4124 69.8233 60.5424 69.6133 60.6291 69.38C60.7157 69.1467 60.7591 68.91 60.7591 68.67C60.7591 68.3567 60.7357 68.0767 60.6891 67.83C60.6491 67.5767 60.5291 67.36 60.3291 67.18C60.1291 67 59.8257 66.8633 59.4191 66.77C59.0191 66.67 58.4591 66.62 57.7391 66.62V64.48C58.3457 64.48 58.8357 64.4333 59.2091 64.34C59.5824 64.2467 59.8691 64.12 60.0691 63.96C60.2757 63.7933 60.4124 63.5933 60.4791 63.36C60.5457 63.1267 60.5791 62.87 60.5791 62.59C60.5791 62.0167 60.4391 61.5767 60.1591 61.27C59.8857 60.9567 59.4657 60.8 58.8991 60.8C58.4391 60.8 58.0491 60.9233 57.7291 61.17C57.4157 61.41 57.1991 61.71 57.0791 62.07C56.9391 62.4367 56.7557 62.68 56.5291 62.8C56.3024 62.92 55.9791 62.9467 55.5591 62.88L53.9191 62.59ZM69.0806 63.56C69.354 63.5067 69.6173 63.47 69.8706 63.45C70.124 63.43 70.3706 63.42 70.6106 63.42C71.3773 63.42 72.054 63.5367 72.6406 63.77C73.2273 64.0033 73.7206 64.3233 74.1206 64.73C74.5206 65.13 74.8206 65.6033 75.0206 66.15C75.2273 66.69 75.3306 67.27 75.3306 67.89C75.3306 68.67 75.1906 69.3833 74.9106 70.03C74.6373 70.67 74.254 71.2233 73.7606 71.69C73.2673 72.1567 72.6773 72.52 71.9906 72.78C71.3106 73.0333 70.564 73.16 69.7506 73.16C69.2773 73.16 68.824 73.11 68.3906 73.01C67.964 72.91 67.5606 72.7767 67.1806 72.61C66.8073 72.4367 66.4606 72.24 66.1406 72.02C65.8206 71.7933 65.5306 71.5533 65.2706 71.3L66.2306 70.02C66.3306 69.8867 66.4473 69.7867 66.5806 69.72C66.714 69.6467 66.8573 69.61 67.0106 69.61C67.2106 69.61 67.3973 69.6667 67.5706 69.78C67.7506 69.8867 67.944 70.0067 68.1506 70.14C68.364 70.2667 68.6106 70.3833 68.8906 70.49C69.1706 70.5967 69.5173 70.65 69.9306 70.65C70.344 70.65 70.6973 70.5833 70.9906 70.45C71.284 70.31 71.5206 70.1233 71.7006 69.89C71.8873 69.65 72.0206 69.3733 72.1006 69.06C72.1873 68.74 72.2306 68.4 72.2306 68.04C72.2306 67.3333 72.0306 66.7967 71.6306 66.43C71.2306 66.0567 70.664 65.87 69.9306 65.87C69.2773 65.87 68.6373 65.9933 68.0106 66.24L66.0906 65.72L67.3306 58.43H74.7906V59.71C74.7906 59.9233 74.7573 60.1167 74.6906 60.29C74.624 60.4633 74.5173 60.6167 74.3706 60.75C74.2306 60.8767 74.044 60.9767 73.8106 61.05C73.5773 61.1167 73.2973 61.15 72.9706 61.15H69.4906L69.0806 63.56ZM83.9022 61.96C83.9022 62.4933 83.8055 62.98 83.6122 63.42C83.4189 63.86 83.1622 64.24 82.8422 64.56C82.5222 64.8733 82.1489 65.1167 81.7222 65.29C81.3022 65.4633 80.8622 65.55 80.4022 65.55C79.8955 65.55 79.4289 65.4633 79.0022 65.29C78.5822 65.1167 78.2155 64.8733 77.9022 64.56C77.5955 64.24 77.3555 63.86 77.1822 63.42C77.0089 62.98 76.9222 62.4933 76.9222 61.96C76.9222 61.4067 77.0089 60.9067 77.1822 60.46C77.3555 60.0067 77.5955 59.62 77.9022 59.3C78.2155 58.98 78.5822 58.7333 79.0022 58.56C79.4289 58.38 79.8955 58.29 80.4022 58.29C80.9089 58.29 81.3755 58.38 81.8022 58.56C82.2355 58.7333 82.6055 58.98 82.9122 59.3C83.2255 59.62 83.4689 60.0067 83.6422 60.46C83.8155 60.9067 83.9022 61.4067 83.9022 61.96ZM81.5222 61.96C81.5222 61.62 81.4922 61.34 81.4322 61.12C81.3789 60.8933 81.3022 60.7133 81.2022 60.58C81.1022 60.4467 80.9822 60.3533 80.8422 60.3C80.7089 60.2467 80.5622 60.22 80.4022 60.22C80.2422 60.22 80.0955 60.2467 79.9622 60.3C79.8289 60.3533 79.7155 60.4467 79.6222 60.58C79.5289 60.7133 79.4555 60.8933 79.4022 61.12C79.3489 61.34 79.3222 61.62 79.3222 61.96C79.3222 62.28 79.3489 62.5467 79.4022 62.76C79.4555 62.9733 79.5289 63.1433 79.6222 63.27C79.7155 63.3967 79.8289 63.4867 79.9622 63.54C80.0955 63.5933 80.2422 63.62 80.4022 63.62C80.5622 63.62 80.7089 63.5933 80.8422 63.54C80.9822 63.4867 81.1022 63.3967 81.2022 63.27C81.3022 63.1433 81.3789 62.9733 81.4322 62.76C81.4922 62.5467 81.5222 62.28 81.5222 61.96ZM88.4822 58.89C88.5822 58.7767 88.7055 58.6733 88.8522 58.58C88.9989 58.48 89.2022 58.43 89.4622 58.43H91.7222L80.7422 72.56C80.6422 72.6867 80.5155 72.7933 80.3622 72.88C80.2155 72.96 80.0355 73 79.8222 73H77.5022L88.4822 58.89ZM92.2822 69.58C92.2822 70.1133 92.1855 70.6033 91.9922 71.05C91.7989 71.49 91.5422 71.87 91.2222 72.19C90.9022 72.5033 90.5289 72.7467 90.1022 72.92C89.6822 73.0933 89.2422 73.18 88.7822 73.18C88.2755 73.18 87.8089 73.0933 87.3822 72.92C86.9622 72.7467 86.5955 72.5033 86.2822 72.19C85.9755 71.87 85.7355 71.49 85.5622 71.05C85.3889 70.6033 85.3022 70.1133 85.3022 69.58C85.3022 69.0267 85.3889 68.5267 85.5622 68.08C85.7355 67.6267 85.9755 67.24 86.2822 66.92C86.5955 66.6 86.9622 66.3533 87.3822 66.18C87.8089 66 88.2755 65.91 88.7822 65.91C89.2889 65.91 89.7555 66 90.1822 66.18C90.6155 66.3533 90.9855 66.6 91.2922 66.92C91.6055 67.24 91.8489 67.6267 92.0222 68.08C92.1955 68.5267 92.2822 69.0267 92.2822 69.58ZM89.9022 69.58C89.9022 69.2467 89.8722 68.97 89.8122 68.75C89.7589 68.5233 89.6822 68.3433 89.5822 68.21C89.4822 68.0767 89.3622 67.9833 89.2222 67.93C89.0889 67.8767 88.9422 67.85 88.7822 67.85C88.6222 67.85 88.4755 67.8767 88.3422 67.93C88.2089 67.9833 88.0955 68.0767 88.0022 68.21C87.9089 68.3433 87.8355 68.5233 87.7822 68.75C87.7289 68.97 87.7022 69.2467 87.7022 69.58C87.7022 69.9 87.7289 70.1667 87.7822 70.38C87.8355 70.5933 87.9089 70.7633 88.0022 70.89C88.0955 71.0167 88.2089 71.1067 88.3422 71.16C88.4755 71.2133 88.6222 71.24 88.7822 71.24C88.9422 71.24 89.0889 71.2133 89.2222 71.16C89.3622 71.1067 89.4822 71.0167 89.5822 70.89C89.6822 70.7633 89.7589 70.5933 89.8122 70.38C89.8722 70.1667 89.9022 69.9 89.9022 69.58Z" fill="#00394C"/>
<defs>
<filter id="filter0_d_145_598" x="148.4" y="46.4" width="185.2" height="68.038" filterUnits="userSpaceOnUse" color-interpolation-filters="sRGB">
<feFlood flood-opacity="0" result="BackgroundImageFix"/>
<feColorMatrix in="SourceAlpha" type="matrix" values="0 0 0 0 0 0 0 0 0 0 0 0 0 0 0 0 0 0 127 0" result="hardAlpha"/>
<feOffset dy="14"/>
<feGaussianBlur stdDeviation="8.8"/>
<feComposite in2="hardAlpha" operator="out"/>
<feColorMatrix type="matrix" values="0 0 0 0 0 0 0 0 0 0 0 0 0 0 0 0 0 0 0.04 0"/>
<feBlend mode="normal" in2="BackgroundImageFix" result="effect1_dropShadow_145_598"/>
<feBlend mode="normal" in="SourceGraphic" in2="effect1_dropShadow_145_598" result="shape"/>
</filter>
<filter id="filter1_d_145_598" x="149.4" y="0.4" width="185.2" height="68.038" filterUnits="userSpaceOnUse" color-interpolation-filters="sRGB">
<feFlood flood-opacity="0" result="BackgroundImageFix"/>
<feColorMatrix in="SourceAlpha" type="matrix" values="0 0 0 0 0 0 0 0 0 0 0 0 0 0 0 0 0 0 127 0" result="hardAlpha"/>
<feOffset dy="14"/>
<feGaussianBlur stdDeviation="8.8"/>
<feComposite in2="hardAlpha" operator="out"/>
<feColorMatrix type="matrix" values="0 0 0 0 0 0 0 0 0 0 0 0 0 0 0 0 0 0 0.04 0"/>
<feBlend mode="normal" in2="BackgroundImageFix" result="effect1_dropShadow_145_598"/>
<feBlend mode="normal" in="SourceGraphic" in2="effect1_dropShadow_145_598" result="shape"/>
</filter>
<filter id="filter2_d_145_598" x="148.4" y="93.4" width="185.2" height="68.0379" filterUnits="userSpaceOnUse" color-interpolation-filters="sRGB">
<feFlood flood-opacity="0" result="BackgroundImageFix"/>
<feColorMatrix in="SourceAlpha" type="matrix" values="0 0 0 0 0 0 0 0 0 0 0 0 0 0 0 0 0 0 127 0" result="hardAlpha"/>
<feOffset dy="14"/>
<feGaussianBlur stdDeviation="8.8"/>
<feComposite in2="hardAlpha" operator="out"/>
<feColorMatrix type="matrix" values="0 0 0 0 0 0 0 0 0 0 0 0 0 0 0 0 0 0 0.04 0"/>
<feBlend mode="normal" in2="BackgroundImageFix" result="effect1_dropShadow_145_598"/>
<feBlend mode="normal" in="SourceGraphic" in2="effect1_dropShadow_145_598" result="shape"/>
</filter>
<filter id="filter3_d_145_598" x="148.4" y="93.4" width="185.2" height="68.0379" filterUnits="userSpaceOnUse" color-interpolation-filters="sRGB">
<feFlood flood-opacity="0" result="BackgroundImageFix"/>
<feColorMatrix in="SourceAlpha" type="matrix" values="0 0 0 0 0 0 0 0 0 0 0 0 0 0 0 0 0 0 127 0" result="hardAlpha"/>
<feOffset dy="14"/>
<feGaussianBlur stdDeviation="8.8"/>
<feComposite in2="hardAlpha" operator="out"/>
<feColorMatrix type="matrix" values="0 0 0 0 0 0 0 0 0 0 0 0 0 0 0 0 0 0 0.04 0"/>
<feBlend mode="normal" in2="BackgroundImageFix" result="effect1_dropShadow_145_598"/>
<feBlend mode="normal" in="SourceGraphic" in2="effect1_dropShadow_145_598" result="shape"/>
</filter>
<filter id="filter4_d_145_598" x="148.4" y="138.4" width="185.2" height="68.0379" filterUnits="userSpaceOnUse" color-interpolation-filters="sRGB">
<feFlood flood-opacity="0" result="BackgroundImageFix"/>
<feColorMatrix in="SourceAlpha" type="matrix" values="0 0 0 0 0 0 0 0 0 0 0 0 0 0 0 0 0 0 127 0" result="hardAlpha"/>
<feOffset dy="14"/>
<feGaussianBlur stdDeviation="8.8"/>
<feComposite in2="hardAlpha" operator="out"/>
<feColorMatrix type="matrix" values="0 0 0 0 0 0 0 0 0 0 0 0 0 0 0 0 0 0 0.04 0"/>
<feBlend mode="normal" in2="BackgroundImageFix" result="effect1_dropShadow_145_598"/>
<feBlend mode="normal" in="SourceGraphic" in2="effect1_dropShadow_145_598" result="shape"/>
</filter>
<filter id="filter5_d_145_598" x="148.4" y="138.4" width="185.2" height="68.0379" filterUnits="userSpaceOnUse" color-interpolation-filters="sRGB">
<feFlood flood-opacity="0" result="BackgroundImageFix"/>
<feColorMatrix in="SourceAlpha" type="matrix" values="0 0 0 0 0 0 0 0 0 0 0 0 0 0 0 0 0 0 127 0" result="hardAlpha"/>
<feOffset dy="14"/>
<feGaussianBlur stdDeviation="8.8"/>
<feComposite in2="hardAlpha" operator="out"/>
<feColorMatrix type="matrix" values="0 0 0 0 0 0 0 0 0 0 0 0 0 0 0 0 0 0 0.04 0"/>
<feBlend mode="normal" in2="BackgroundImageFix" result="effect1_dropShadow_145_598"/>
<feBlend mode="normal" in="SourceGraphic" in2="effect1_dropShadow_145_598" result="shape"/>
</filter>
<filter id="filter6_d_145_598" x="148.4" y="184.4" width="185.2" height="68.0379" filterUnits="userSpaceOnUse" color-interpolation-filters="sRGB">
<feFlood flood-opacity="0" result="BackgroundImageFix"/>
<feColorMatrix in="SourceAlpha" type="matrix" values="0 0 0 0 0 0 0 0 0 0 0 0 0 0 0 0 0 0 127 0" result="hardAlpha"/>
<feOffset dy="14"/>
<feGaussianBlur stdDeviation="8.8"/>
<feComposite in2="hardAlpha" operator="out"/>
<feColorMatrix type="matrix" values="0 0 0 0 0 0 0 0 0 0 0 0 0 0 0 0 0 0 0.04 0"/>
<feBlend mode="normal" in2="BackgroundImageFix" result="effect1_dropShadow_145_598"/>
<feBlend mode="normal" in="SourceGraphic" in2="effect1_dropShadow_145_598" result="shape"/>
</filter>
<filter id="filter7_d_145_598" x="148.4" y="184.4" width="185.2" height="68.0379" filterUnits="userSpaceOnUse" color-interpolation-filters="sRGB">
<feFlood flood-opacity="0" result="BackgroundImageFix"/>
<feColorMatrix in="SourceAlpha" type="matrix" values="0 0 0 0 0 0 0 0 0 0 0 0 0 0 0 0 0 0 127 0" result="hardAlpha"/>
<feOffset dy="14"/>
<feGaussianBlur stdDeviation="8.8"/>
<feComposite in2="hardAlpha" operator="out"/>
<feColorMatrix type="matrix" values="0 0 0 0 0 0 0 0 0 0 0 0 0 0 0 0 0 0 0.04 0"/>
<feBlend mode="normal" in2="BackgroundImageFix" result="effect1_dropShadow_145_598"/>
<feBlend mode="normal" in="SourceGraphic" in2="effect1_dropShadow_145_598" result="shape"/>
</filter>
</defs>
</svg>
